<svg width="138" height="138" viewBox="0 0 138 138" fill="none" xmlns="http://www.w3.org/2000/svg">
<g filter="url(#filter0_d_68_1019)">
<path fill-rule="evenodd" clip-rule="evenodd" d="M88.3899 85.1668V79.8843C88.3899 73.0595 94.088 67.7563 100.829 67.7563C107.57 67.7563 113.268 73.0595 113.268 79.8843V85.1668C113.642 85.2801 114.013 85.4161 114.382 85.5799C117.468 86.9493 119.841 89.5377 121.061 92.694C121.588 94.057 121.791 95.4567 121.885 96.9327C121.975 98.3531 121.975 100.318 121.975 102.392C121.975 104.465 121.975 106.196 121.885 107.616C121.791 109.092 121.588 110.492 121.061 111.855C119.841 115.011 117.468 117.599 114.382 118.969C113.027 119.57 111.64 119.797 110.219 119.901C108.867 120 107.23 120 105.312 120H96.3453C94.4275 120 92.7903 120 91.4389 119.901C90.0181 119.797 88.6307 119.57 87.2757 118.969C84.19 117.599 81.8167 115.011 80.5965 111.855C80.0696 110.492 79.867 109.092 79.773 107.616C79.6826 106.196 79.6826 104.465 79.6826 102.392C79.6826 100.318 79.6826 98.3531 79.773 96.9327C79.867 95.4567 80.0696 94.057 80.5965 92.6941C81.8167 89.5377 84.19 86.9493 87.2757 85.5799C87.6447 85.4161 88.0161 85.2801 88.3899 85.1668ZM95.8532 79.8843C95.8532 77.4349 97.9518 75.2197 100.829 75.2197C103.706 75.2197 105.804 77.4349 105.804 79.8843V84.549C105.643 84.5489 105.479 84.5489 105.312 84.5489H96.3452C96.1792 84.5489 96.0151 84.5489 95.8532 84.549V79.8843Z" fill="url(#paint0_linear_68_1019)"/>
<path d="M55.8629 19.1884C52.6841 17.9964 49.1431 17.9979 44.0212 18.0002C39.649 18.0002 35.2613 18.0003 32.4135 18.2513C29.4792 18.51 26.9114 19.0571 24.5664 20.3658C21.545 22.0519 19.052 24.5449 17.3659 27.5663C16.0572 29.9113 15.5101 32.4791 15.2514 35.4134C15.0004 38.2612 15.0004 41.7875 15.0005 46.1597V61.8221C15.0004 73.3077 15.0004 82.3087 15.9446 89.3317C16.911 96.5201 18.9278 102.192 23.38 106.645C27.8322 111.097 33.5045 113.114 40.6929 114.08C47.7158 115.024 56.7168 115.024 68.2024 115.024H69.4727C71.3923 115.024 72.3521 115.024 72.7997 114.487C73.2472 113.95 73.0564 112.91 72.6748 110.831C72.4889 109.818 72.3748 108.871 72.3251 108.09C72.2193 106.429 72.2195 104.496 72.2196 102.564C72.2194 100.633 72.2193 98.1188 72.3251 96.4578C72.4415 94.6293 72.7182 92.3752 73.6356 90.0022C74.8961 86.7417 76.971 83.819 79.6912 81.5759C80.3101 81.0656 80.6195 80.8105 80.7603 80.5346C80.9012 80.2586 80.9258 79.8659 80.9751 79.0805C81.7084 67.3964 90.6908 60.2924 100.829 60.2924C111.325 60.2924 120.581 68.628 120.73 80.3499C120.732 80.5283 120.671 80.5909 120.814 80.6963C121.187 80.9693 121.877 80.8208 121.888 80.3591C121.975 76.7229 121.975 72.6179 121.975 67.9664C121.975 62.8962 121.975 58.3961 121.642 55.1156C121.297 51.7294 120.567 48.7928 118.831 46.195C117.47 44.1577 115.72 42.4085 113.683 41.0472C111.085 39.3114 108.149 38.5808 104.762 38.2363C101.482 37.9026 97.3933 37.9026 92.3232 37.9027L74.638 37.9027C73.0653 37.9027 72.1676 37.8981 71.5051 37.8296C70.9975 37.7941 70.6513 37.4178 70.5416 37.2341C70.1841 36.6722 68.9049 34.1167 68.2016 32.71C65.853 27.9576 62.8061 21.792 55.8629 19.1884Z" fill="url(#paint1_linear_68_1019)"/>
</g>
<defs>
<filter id="filter0_d_68_1019" x="-8" y="-6" width="154" height="154" filterUnits="userSpaceOnUse" color-interpolation-filters="sRGB">
<feFlood flood-opacity="0" result="BackgroundImageFix"/>
<feColorMatrix in="SourceAlpha" type="matrix" values="0 0 0 0 0 0 0 0 0 0 0 0 0 0 0 0 0 0 127 0" result="hardAlpha"/>
<feOffset dy="2"/>
<feGaussianBlur stdDeviation="4"/>
<feComposite in2="hardAlpha" operator="out"/>
<feColorMatrix type="matrix" values="0 0 0 0 0.25727 0 0 0 0 0.357377 0 0 0 0 0.444971 0 0 0 0.15 0"/>
<feBlend mode="normal" in2="BackgroundImageFix" result="effect1_dropShadow_68_1019"/>
<feBlend mode="normal" in="SourceGraphic" in2="effect1_dropShadow_68_1019" result="shape"/>
</filter>
<linearGradient id="paint0_linear_68_1019" x1="100.829" y1="67.7563" x2="100.829" y2="120" gradientUnits="userSpaceOnUse">
<stop stop-color="#1DEBAA"/>
<stop offset="1" stop-color="#00C8AD"/>
</linearGradient>
<linearGradient id="paint1_linear_68_1019" x1="68.4879" y1="18" x2="68.4879" y2="115.024" gradientUnits="userSpaceOnUse">
<stop stop-color="#1DEBAA"/>
<stop offset="1" stop-color="#00C8AD"/>
</linearGradient>
</defs>
</svg>
