<svg width="24" height="24" viewBox="0 0 24 24" fill="none" xmlns="http://www.w3.org/2000/svg">
<g clip-path="url(#clip0_40_2527)">
<path d="M0.75 12C0.75 18.2132 5.7868 23.25 12 23.25V22.25C6.33908 22.25 1.75 17.6609 1.75 12H0.75ZM12 0.75C5.7868 0.75 0.75 5.7868 0.75 12H1.75C1.75 6.33908 6.33908 1.75 12 1.75V0.75ZM23.25 12C23.25 5.7868 18.2132 0.75 12 0.75V1.75C17.6609 1.75 22.25 6.33908 22.25 12H23.25ZM12 23.25C18.2132 23.25 23.25 18.2132 23.25 12H22.25C22.25 17.6609 17.6609 22.25 12 22.25V23.25Z" fill="#2E2E2E" fill-opacity="0.4"/>
</g>
<defs>
<clipPath id="clip0_40_2527">
<rect width="24" height="24" fill="white"/>
</clipPath>
</defs>
</svg>
