<svg width="113" height="3" viewBox="0 0 113 3" fill="none" xmlns="http://www.w3.org/2000/svg">
<path d="M1.21727 2.61621C0.68602 2.61621 0.270981 2.20117 0.270981 1.66992C0.270981 1.13867 0.68602 0.723633 1.21727 0.723633C1.74852 0.723633 2.16356 1.13867 2.16356 1.66992C2.16356 2.20117 1.74852 2.61621 1.21727 2.61621ZM4.79651 2.61621C4.26526 2.61621 3.85022 2.20117 3.85022 1.66992C3.85022 1.13867 4.26526 0.723633 4.79651 0.723633C5.32776 0.723633 5.7428 1.13867 5.7428 1.66992C5.7428 2.20117 5.32776 2.61621 4.79651 2.61621ZM8.37576 2.61621C7.84451 2.61621 7.42947 2.20117 7.42947 1.66992C7.42947 1.13867 7.84451 0.723633 8.37576 0.723633C8.90701 0.723633 9.32205 1.13867 9.32205 1.66992C9.32205 2.20117 8.90701 2.61621 8.37576 2.61621ZM11.955 2.61621C11.4238 2.61621 11.0087 2.20117 11.0087 1.66992C11.0087 1.13867 11.4238 0.723633 11.955 0.723633C12.4863 0.723633 12.9013 1.13867 12.9013 1.66992C12.9013 2.20117 12.4863 2.61621 11.955 2.61621ZM15.5342 2.61621C15.003 2.61621 14.588 2.20117 14.588 1.66992C14.588 1.13867 15.003 0.723633 15.5342 0.723633C16.0655 0.723633 16.4805 1.13867 16.4805 1.66992C16.4805 2.20117 16.0655 2.61621 15.5342 2.61621ZM19.1135 2.61621C18.5822 2.61621 18.1672 2.20117 18.1672 1.66992C18.1672 1.13867 18.5822 0.723633 19.1135 0.723633C19.6447 0.723633 20.0598 1.13867 20.0598 1.66992C20.0598 2.20117 19.6447 2.61621 19.1135 2.61621ZM22.6927 2.61621C22.1615 2.61621 21.7464 2.20117 21.7464 1.66992C21.7464 1.13867 22.1615 0.723633 22.6927 0.723633C23.224 0.723633 23.639 1.13867 23.639 1.66992C23.639 2.20117 23.224 2.61621 22.6927 2.61621ZM26.272 2.61621C25.7407 2.61621 25.3257 2.20117 25.3257 1.66992C25.3257 1.13867 25.7407 0.723633 26.272 0.723633C26.8032 0.723633 27.2183 1.13867 27.2183 1.66992C27.2183 2.20117 26.8032 2.61621 26.272 2.61621ZM29.8512 2.61621C29.32 2.61621 28.9049 2.20117 28.9049 1.66992C28.9049 1.13867 29.32 0.723633 29.8512 0.723633C30.3825 0.723633 30.7975 1.13867 30.7975 1.66992C30.7975 2.20117 30.3825 2.61621 29.8512 2.61621ZM33.4305 2.61621C32.8992 2.61621 32.4842 2.20117 32.4842 1.66992C32.4842 1.13867 32.8992 0.723633 33.4305 0.723633C33.9617 0.723633 34.3768 1.13867 34.3768 1.66992C34.3768 2.20117 33.9617 2.61621 33.4305 2.61621ZM37.0097 2.61621C36.4785 2.61621 36.0634 2.20117 36.0634 1.66992C36.0634 1.13867 36.4785 0.723633 37.0097 0.723633C37.541 0.723633 37.956 1.13867 37.956 1.66992C37.956 2.20117 37.541 2.61621 37.0097 2.61621ZM40.589 2.61621C40.0577 2.61621 39.6427 2.20117 39.6427 1.66992C39.6427 1.13867 40.0577 0.723633 40.589 0.723633C41.1202 0.723633 41.5352 1.13867 41.5352 1.66992C41.5352 2.20117 41.1202 2.61621 40.589 2.61621ZM44.1682 2.61621C43.6369 2.61621 43.2219 2.20117 43.2219 1.66992C43.2219 1.13867 43.6369 0.723633 44.1682 0.723633C44.6994 0.723633 45.1145 1.13867 45.1145 1.66992C45.1145 2.20117 44.6994 2.61621 44.1682 2.61621ZM47.7474 2.61621C47.2162 2.61621 46.8012 2.20117 46.8012 1.66992C46.8012 1.13867 47.2162 0.723633 47.7474 0.723633C48.2787 0.723633 48.6937 1.13867 48.6937 1.66992C48.6937 2.20117 48.2787 2.61621 47.7474 2.61621ZM51.3267 2.61621C50.7954 2.61621 50.3804 2.20117 50.3804 1.66992C50.3804 1.13867 50.7954 0.723633 51.3267 0.723633C51.8579 0.723633 52.273 1.13867 52.273 1.66992C52.273 2.20117 51.8579 2.61621 51.3267 2.61621ZM54.9059 2.61621C54.3747 2.61621 53.9596 2.20117 53.9596 1.66992C53.9596 1.13867 54.3747 0.723633 54.9059 0.723633C55.4372 0.723633 55.8522 1.13867 55.8522 1.66992C55.8522 2.20117 55.4372 2.61621 54.9059 2.61621ZM58.4852 2.61621C57.9539 2.61621 57.5389 2.20117 57.5389 1.66992C57.5389 1.13867 57.9539 0.723633 58.4852 0.723633C59.0164 0.723633 59.4315 1.13867 59.4315 1.66992C59.4315 2.20117 59.0164 2.61621 58.4852 2.61621ZM62.0644 2.61621C61.5332 2.61621 61.1181 2.20117 61.1181 1.66992C61.1181 1.13867 61.5332 0.723633 62.0644 0.723633C62.5957 0.723633 63.0107 1.13867 63.0107 1.66992C63.0107 2.20117 62.5957 2.61621 62.0644 2.61621ZM65.6437 2.61621C65.1124 2.61621 64.6974 2.20117 64.6974 1.66992C64.6974 1.13867 65.1124 0.723633 65.6437 0.723633C66.1749 0.723633 66.5899 1.13867 66.5899 1.66992C66.5899 2.20117 66.1749 2.61621 65.6437 2.61621ZM69.2229 2.61621C68.6917 2.61621 68.2766 2.20117 68.2766 1.66992C68.2766 1.13867 68.6917 0.723633 69.2229 0.723633C69.7542 0.723633 70.1692 1.13867 70.1692 1.66992C70.1692 2.20117 69.7542 2.61621 69.2229 2.61621ZM72.8021 2.61621C72.2709 2.61621 71.8559 2.20117 71.8559 1.66992C71.8559 1.13867 72.2709 0.723633 72.8021 0.723633C73.3334 0.723633 73.7484 1.13867 73.7484 1.66992C73.7484 2.20117 73.3334 2.61621 72.8021 2.61621ZM76.3814 2.61621C75.8501 2.61621 75.4351 2.20117 75.4351 1.66992C75.4351 1.13867 75.8501 0.723633 76.3814 0.723633C76.9126 0.723633 77.3277 1.13867 77.3277 1.66992C77.3277 2.20117 76.9126 2.61621 76.3814 2.61621ZM79.9606 2.61621C79.4294 2.61621 79.0143 2.20117 79.0143 1.66992C79.0143 1.13867 79.4294 0.723633 79.9606 0.723633C80.4919 0.723633 80.9069 1.13867 80.9069 1.66992C80.9069 2.20117 80.4919 2.61621 79.9606 2.61621ZM83.5399 2.61621C83.0086 2.61621 82.5936 2.20117 82.5936 1.66992C82.5936 1.13867 83.0086 0.723633 83.5399 0.723633C84.0711 0.723633 84.4862 1.13867 84.4862 1.66992C84.4862 2.20117 84.0711 2.61621 83.5399 2.61621ZM87.1191 2.61621C86.5879 2.61621 86.1728 2.20117 86.1728 1.66992C86.1728 1.13867 86.5879 0.723633 87.1191 0.723633C87.6504 0.723633 88.0654 1.13867 88.0654 1.66992C88.0654 2.20117 87.6504 2.61621 87.1191 2.61621ZM90.6984 2.61621C90.1671 2.61621 89.7521 2.20117 89.7521 1.66992C89.7521 1.13867 90.1671 0.723633 90.6984 0.723633C91.2296 0.723633 91.6447 1.13867 91.6447 1.66992C91.6447 2.20117 91.2296 2.61621 90.6984 2.61621ZM94.2776 2.61621C93.7464 2.61621 93.3313 2.20117 93.3313 1.66992C93.3313 1.13867 93.7464 0.723633 94.2776 0.723633C94.8089 0.723633 95.2239 1.13867 95.2239 1.66992C95.2239 2.20117 94.8089 2.61621 94.2776 2.61621ZM97.8568 2.61621C97.3256 2.61621 96.9106 2.20117 96.9106 1.66992C96.9106 1.13867 97.3256 0.723633 97.8568 0.723633C98.3881 0.723633 98.8031 1.13867 98.8031 1.66992C98.8031 2.20117 98.3881 2.61621 97.8568 2.61621ZM101.436 2.61621C100.905 2.61621 100.49 2.20117 100.49 1.66992C100.49 1.13867 100.905 0.723633 101.436 0.723633C101.967 0.723633 102.382 1.13867 102.382 1.66992C102.382 2.20117 101.967 2.61621 101.436 2.61621ZM105.015 2.61621C104.484 2.61621 104.069 2.20117 104.069 1.66992C104.069 1.13867 104.484 0.723633 105.015 0.723633C105.547 0.723633 105.962 1.13867 105.962 1.66992C105.962 2.20117 105.547 2.61621 105.015 2.61621ZM108.219 2.61621C107.688 2.61621 107.273 2.20117 107.273 1.66992C107.273 1.13867 107.688 0.723633 108.219 0.723633C108.751 0.723633 109.166 1.13867 109.166 1.66992C109.166 2.20117 108.751 2.61621 108.219 2.61621ZM111.424 2.61621C110.892 2.61621 110.477 2.20117 110.477 1.66992C110.477 1.13867 110.892 0.723633 111.424 0.723633C111.955 0.723633 112.37 1.13867 112.37 1.66992C112.37 2.20117 111.955 2.61621 111.424 2.61621Z" fill="#2E2E2E" fill-opacity="0.7"/>
</svg>
