<svg width="40" height="40" viewBox="0 0 40 40" fill="none" xmlns="http://www.w3.org/2000/svg">
<g clip-path="url(#clip0_112_762)">
<rect width="40" height="40" rx="10" fill="#246AF1"/>
<rect width="40" height="40" rx="10" fill="url(#paint0_linear_112_762)"/>
<path d="M14.6858 23.0078L21.7774 26.4844L20.7227 53.125L-2.77339 44.082L-9.80464 20.0195L14.6858 23.0078Z" fill="white" fill-opacity="0.05"/>
<g clip-path="url(#clip1_112_762)">
<path fill-rule="evenodd" clip-rule="evenodd" d="M24.0599 21.2774L21.3367 19.0838C20.7604 18.6196 19.9088 18.7116 19.4448 19.2879L18.7396 20.1633C18.4143 20.5676 18.3677 21.1054 18.5648 21.5519C15.1182 23.0131 9.36756 22.6991 5.20909 21.8608C4.78714 21.7757 4.27445 21.4509 3.86993 21.7988C3.75919 22.4476 4.12346 23.1185 4.42159 23.6776C4.6423 24.0862 5.09322 25.0321 5.49799 25.261C5.76613 25.4115 6.16296 25.4846 6.57568 25.5297C6.9238 25.5674 7.28422 25.5856 7.59158 25.6133C8.66671 25.7104 9.81668 25.6097 10.7221 25.6302C10.0823 25.8891 9.42626 26.0972 8.75873 26.2631C8.38549 26.3549 8.05429 26.4033 7.77154 26.683C7.02121 27.4308 7.68361 28.4779 8.46035 28.8732C9.17145 29.2349 10.5329 28.8284 11.2571 28.603C10.8708 29.1091 9.5065 29.5792 10.0794 30.3939C10.5539 31.0712 11.6132 30.6174 12.2243 30.4282C13.7593 29.9525 14.9552 29.0452 16.0305 28.2403C16.0277 28.3041 15.9752 28.3139 15.9621 28.3649C15.121 29.4692 14.2338 30.5082 13.1443 31.2375C12.7934 31.4731 12.3097 31.5544 12.0259 31.9525C12.0338 31.9415 13.2402 32.7466 13.3522 32.8169C13.6688 33.014 14.1618 33.0443 14.4038 33.3232C14.7768 33.0053 15.1356 32.6321 15.5038 32.3039C15.6745 32.8392 15.2725 33.51 15.4248 34.0955C15.4484 34.1868 16.8547 34.6649 16.9808 34.6175C17.4092 34.4575 17.8824 33.4042 18.0977 33.025C18.793 31.8025 19.2977 30.4839 19.8222 29.1824C19.7199 31.6849 19.0624 33.5752 18.1388 35.1745C19.0954 35.2558 20.1101 35.8905 20.9288 35.6231C21.4046 35.4678 21.7425 34.488 21.9066 33.8151C22.5749 31.076 22.3923 27.1749 22.2134 24.5071C22.6992 24.6158 23.2275 24.4566 23.5585 24.0447L24.2637 23.1695C24.7279 22.5935 24.6361 21.7419 24.0599 21.2774Z" fill="white"/>
<path fill-rule="evenodd" clip-rule="evenodd" d="M35.2597 4.57813C34.7145 4.14029 33.8883 4.25334 33.4238 4.83012L22.9814 17.7936C22.5167 18.3704 22.5831 19.2002 23.1278 19.638C23.6733 20.0759 24.4995 19.9631 24.964 19.3866L35.4076 6.42255C35.8724 5.84603 35.806 5.01623 35.2597 4.57813Z" fill="white"/>
<path d="M14.0524 9.46848C14.7168 9.46848 15.354 9.74003 15.8238 10.2234C16.2936 10.7068 16.5575 11.3624 16.5575 12.0459C16.5575 12.1314 16.5905 12.2133 16.6492 12.2738C16.7079 12.3342 16.7876 12.3681 16.8706 12.3681C16.9537 12.3681 17.0333 12.3342 17.0921 12.2738C17.1508 12.2133 17.1838 12.1314 17.1838 12.0459C17.1838 11.3627 17.4474 10.7074 17.9168 10.2241C18.3862 9.74077 19.0229 9.46899 19.687 9.46848C19.7701 9.46848 19.8497 9.43453 19.9084 9.37411C19.9671 9.31369 20.0001 9.23174 20.0001 9.14629C20.0001 9.06085 19.9671 8.9789 19.9084 8.91848C19.8497 8.85805 19.7701 8.82411 19.687 8.82411C19.0229 8.8236 18.3862 8.55182 17.9168 8.0685C17.4474 7.58519 17.1838 6.92989 17.1838 6.24664C17.1838 6.16119 17.1508 6.07924 17.0921 6.01882C17.0333 5.9584 16.9537 5.92445 16.8706 5.92445C16.7876 5.92445 16.7079 5.9584 16.6492 6.01882C16.5905 6.07924 16.5575 6.16119 16.5575 6.24664C16.5575 6.93023 16.2936 7.58582 15.8238 8.06919C15.354 8.55256 14.7168 8.82411 14.0524 8.82411C13.9693 8.82411 13.8897 8.85805 13.831 8.91848C13.7722 8.9789 13.7393 9.06085 13.7393 9.14629C13.7393 9.23174 13.7722 9.31369 13.831 9.37411C13.8897 9.43453 13.9693 9.46848 14.0524 9.46848Z" fill="white"/>
<path d="M28.509 26.7969C28.9924 26.7969 29.4559 26.9944 29.7976 27.3461C30.1394 27.6977 30.3314 28.1746 30.3314 28.6719C30.3314 28.734 30.3554 28.7936 30.3981 28.8376C30.4408 28.8816 30.4988 28.9062 30.5592 28.9062C30.6196 28.9062 30.6775 28.8816 30.7203 28.8376C30.763 28.7936 30.787 28.734 30.787 28.6719C30.787 28.1748 30.9788 27.6981 31.3203 27.3465C31.6617 26.995 32.1249 26.7972 32.608 26.7969C32.6684 26.7969 32.7263 26.7722 32.7691 26.7282C32.8118 26.6843 32.8358 26.6247 32.8358 26.5625C32.8358 26.5003 32.8118 26.4407 32.7691 26.3968C32.7263 26.3528 32.6684 26.3281 32.608 26.3281C32.1249 26.3278 31.6617 26.13 31.3203 25.7785C30.9788 25.4269 30.787 24.9502 30.787 24.4531C30.787 24.391 30.763 24.3314 30.7203 24.2874C30.6775 24.2434 30.6196 24.2188 30.5592 24.2188C30.4988 24.2188 30.4408 24.2434 30.3981 24.2874C30.3554 24.3314 30.3314 24.391 30.3314 24.4531C30.3314 24.9504 30.1394 25.4273 29.7976 25.779C29.4559 26.1306 28.9924 26.3281 28.509 26.3281C28.4486 26.3281 28.3907 26.3528 28.348 26.3968C28.3052 26.4407 28.2812 26.5003 28.2812 26.5625C28.2812 26.6247 28.3052 26.6843 28.348 26.7282C28.3907 26.7722 28.4486 26.7969 28.509 26.7969Z" fill="white"/>
<path d="M10.7431 14.1998C10.9488 14.1998 11.1526 14.2412 11.3427 14.3216C11.5328 14.402 11.7055 14.5198 11.851 14.6683C11.9965 14.8168 12.1119 14.9932 12.1906 15.1872C12.2694 15.3813 12.3099 15.5893 12.3099 15.7993C12.3099 15.8842 12.3429 15.9655 12.4017 16.0255C12.4605 16.0855 12.5402 16.1192 12.6233 16.1192C12.7064 16.1192 12.7861 16.0855 12.8449 16.0255C12.9036 15.9655 12.9367 15.8842 12.9367 15.7993C12.9367 15.3751 13.1017 14.9683 13.3956 14.6683C13.6894 14.3683 14.0879 14.1998 14.5035 14.1998C14.5866 14.1998 14.6663 14.1661 14.7251 14.1061C14.7839 14.0461 14.8169 13.9648 14.8169 13.8799C14.8169 13.7951 14.7839 13.7137 14.7251 13.6537C14.6663 13.5937 14.5866 13.56 14.5035 13.56C14.0879 13.56 13.6894 13.3915 13.3956 13.0915C13.1017 12.7916 12.9367 12.3847 12.9367 11.9605C12.9367 11.8757 12.9036 11.7943 12.8449 11.7343C12.7861 11.6743 12.7064 11.6406 12.6233 11.6406C12.5402 11.6406 12.4605 11.6743 12.4017 11.7343C12.3429 11.7943 12.3099 11.8757 12.3099 11.9605C12.3099 12.1706 12.2694 12.3786 12.1906 12.5726C12.1119 12.7667 11.9965 12.943 11.851 13.0915C11.7055 13.2401 11.5328 13.3579 11.3427 13.4383C11.1526 13.5186 10.9488 13.56 10.7431 13.56C10.6599 13.56 10.5802 13.5937 10.5215 13.6537C10.4627 13.7137 10.4297 13.7951 10.4297 13.8799C10.4297 13.9648 10.4627 14.0461 10.5215 14.1061C10.5802 14.1661 10.6599 14.1998 10.7431 14.1998Z" fill="white" fill-opacity="0.2"/>
<path d="M15.0233 17.4498C15.1669 17.4498 15.3091 17.4786 15.4417 17.5347C15.5744 17.5908 15.6949 17.673 15.7964 17.7767C15.8979 17.8803 15.9785 18.0033 16.0334 18.1387C16.0884 18.2742 16.1166 18.4193 16.1166 18.5658C16.1166 18.625 16.1397 18.6818 16.1807 18.7237C16.2217 18.7655 16.2773 18.7891 16.3353 18.7891C16.3933 18.7891 16.4489 18.7655 16.4899 18.7237C16.5309 18.6818 16.554 18.625 16.554 18.5658C16.554 18.2698 16.6691 17.986 16.8742 17.7767C17.0792 17.5674 17.3573 17.4498 17.6473 17.4498C17.7052 17.4498 17.7609 17.4263 17.8019 17.3844C17.8429 17.3425 17.8659 17.2858 17.8659 17.2266C17.8659 17.1674 17.8429 17.1106 17.8019 17.0687C17.7609 17.0269 17.7052 17.0033 17.6473 17.0033C17.3573 17.0033 17.0792 16.8858 16.8742 16.6765C16.6691 16.4672 16.554 16.1833 16.554 15.8873C16.554 15.8281 16.5309 15.7713 16.4899 15.7294C16.4489 15.6876 16.3933 15.6641 16.3353 15.6641C16.2773 15.6641 16.2217 15.6876 16.1807 15.7294C16.1397 15.7713 16.1166 15.8281 16.1166 15.8873C16.1166 16.0338 16.0884 16.179 16.0334 16.3144C15.9785 16.4498 15.8979 16.5728 15.7964 16.6765C15.6949 16.7801 15.5744 16.8623 15.4417 16.9184C15.3091 16.9745 15.1669 17.0033 15.0233 17.0033C14.9654 17.0033 14.9097 17.0269 14.8687 17.0687C14.8277 17.1106 14.8047 17.1674 14.8047 17.2266C14.8047 17.2858 14.8277 17.3425 14.8687 17.3844C14.9097 17.4263 14.9654 17.4498 15.0233 17.4498Z" fill="white" fill-opacity="0.2"/>
<path d="M26.3222 29.7042C26.4209 29.7042 26.5186 29.7241 26.6098 29.7626C26.701 29.8012 26.7839 29.8577 26.8537 29.929C26.9235 30.0002 26.9789 30.0848 27.0166 30.1779C27.0544 30.271 27.0738 30.3708 27.0738 30.4715C27.0738 30.5122 27.0897 30.5513 27.1179 30.5801C27.1461 30.6088 27.1843 30.625 27.2242 30.625C27.264 30.625 27.3023 30.6088 27.3305 30.5801C27.3587 30.5513 27.3745 30.5122 27.3745 30.4715C27.3745 30.268 27.4537 30.0729 27.5946 29.929C27.7356 29.7851 27.9268 29.7042 28.1261 29.7042C28.166 29.7042 28.2042 29.6881 28.2324 29.6593C28.2606 29.6305 28.2765 29.5915 28.2765 29.5508C28.2765 29.5101 28.2606 29.471 28.2324 29.4423C28.2042 29.4135 28.166 29.3973 28.1261 29.3973C27.9268 29.3973 27.7356 29.3165 27.5946 29.1726C27.4537 29.0287 27.3745 28.8335 27.3745 28.63C27.3745 28.5893 27.3587 28.5503 27.3305 28.5215C27.3023 28.4927 27.264 28.4766 27.2242 28.4766C27.1843 28.4766 27.1461 28.4927 27.1179 28.5215C27.0897 28.5503 27.0738 28.5893 27.0738 28.63C27.0738 28.7308 27.0544 28.8306 27.0166 28.9237C26.9789 29.0167 26.9235 29.1013 26.8537 29.1726C26.7839 29.2438 26.701 29.3004 26.6098 29.3389C26.5186 29.3775 26.4209 29.3973 26.3222 29.3973C26.2823 29.3973 26.2441 29.4135 26.2159 29.4423C26.1877 29.471 26.1719 29.5101 26.1719 29.5508C26.1719 29.5915 26.1877 29.6305 26.2159 29.6593C26.2441 29.6881 26.2823 29.7042 26.3222 29.7042Z" fill="white" fill-opacity="0.2"/>
</g>
<path d="M13.7189 22.9492L21.6408 26.9141L18.0862 48.8281L-1.46462 42.832L-6.24978 24.1992L13.7189 22.9492Z" fill="white" fill-opacity="0.1"/>
<path d="M11.8165 23.4961L20.3712 29.4922L14.6095 47.9883L-1.38662 43.5352L-8.28115 28.8672L11.8165 23.4961Z" fill="white" fill-opacity="0.1"/>
<g opacity="0.3" filter="url(#filter0_d_112_762)">
<path d="M10.9036 34.3944C10.7236 34.3722 10.5852 34.3878 10.4611 34.4563C10.3371 34.5249 10.2501 34.6338 10.1732 34.798L10.7402 34.9614L10.9036 34.3944Z" fill="white"/>
<path d="M10.0908 35.0029C10.0428 35.1386 9.99476 35.3005 9.93913 35.4928L10.5373 35.6652L10.6793 35.1726L10.0908 35.0029Z" fill="white"/>
<path d="M9.87827 35.7039C9.82303 35.8962 9.7775 36.0588 9.7459 36.1993L10.3344 36.369L10.4764 35.8763L9.87827 35.7039Z" fill="white"/>
<path d="M9.70656 36.4166C9.68429 36.5966 9.69994 36.7351 9.76847 36.8591C9.83699 36.9832 9.94589 37.0701 10.1101 37.1471L10.2736 36.5801L9.70656 36.4166Z" fill="white"/>
<path d="M10.315 37.2295C10.4749 37.286 10.6711 37.3426 10.9104 37.4116C11.1498 37.4806 11.346 37.5371 11.5114 37.5744L11.884 36.2821L10.6876 35.9372L10.315 37.2295Z" fill="white"/>
<path d="M11.7288 37.6137C11.9088 37.636 12.0472 37.6203 12.1713 37.5518C12.2953 37.4833 12.3823 37.3744 12.4592 37.2101L11.8922 37.0467L11.7288 37.6137Z" fill="white"/>
<path d="M12.5416 37.0052C12.5896 36.8695 12.6376 36.7076 12.6933 36.5154L12.0951 36.3429L11.9531 36.8356L12.5416 37.0052Z" fill="white"/>
<path d="M12.7541 36.3042C12.8094 36.1119 12.8549 35.9493 12.8865 35.8088L12.298 35.6392L12.156 36.1318L12.7541 36.3042Z" fill="white"/>
<path d="M12.9258 35.5915C12.9481 35.4115 12.9325 35.273 12.8639 35.149C12.7954 35.025 12.6865 34.938 12.5223 34.861L12.3588 35.428L12.9258 35.5915Z" fill="white"/>
<path d="M12.3174 34.7787C12.1575 34.7221 11.9613 34.6655 11.7219 34.5965C11.4826 34.5275 11.2864 34.471 11.121 34.4338L10.7484 35.7261L11.9448 36.0709L12.3174 34.7787Z" fill="white"/>
</g>
<g opacity="0.3" filter="url(#filter1_d_112_762)">
<path d="M6.56497 31.5103C6.49111 31.6343 6.33189 31.6755 6.20933 31.6025C6.08677 31.5295 6.0473 31.3698 6.12116 31.2458C6.19501 31.1219 6.35424 31.0806 6.4768 31.1537C6.59935 31.2267 6.63883 31.3864 6.56497 31.5103Z" fill="white"/>
<path fill-rule="evenodd" clip-rule="evenodd" d="M7.1621 30.8293C7.03182 30.7242 6.84835 30.6148 6.61967 30.4786L5.67114 29.9133C5.44247 29.777 5.259 29.6677 5.10459 29.6031C4.94484 29.5363 4.79539 29.5081 4.64143 29.5591C4.48747 29.6101 4.38282 29.7224 4.29213 29.8721C4.20447 30.0169 4.11912 30.2152 4.01274 30.4625L3.79692 30.9641C3.71375 31.1573 3.64643 31.3138 3.60848 31.4451C3.56897 31.5817 3.55625 31.707 3.59674 31.834C3.63723 31.9609 3.71977 32.0546 3.83057 32.1415C3.93701 32.225 4.0817 32.3112 4.26048 32.4178L5.0882 32.911C5.26697 33.0176 5.41166 33.1038 5.53573 33.1577C5.66487 33.2138 5.78656 33.2418 5.91751 33.217C6.04847 33.1922 6.15256 33.1214 6.25396 33.0216C6.35137 32.9258 6.45693 32.7921 6.58735 32.627L6.92581 32.1985C7.09263 31.9873 7.22648 31.8178 7.31208 31.6719C7.40063 31.5208 7.4496 31.3754 7.42118 31.2157C7.39276 31.056 7.29688 30.938 7.1621 30.8293ZM5.00307 29.8437C4.87077 29.7884 4.79023 29.7833 4.7203 29.8064C4.65037 29.8296 4.58817 29.882 4.51307 30.006C4.43604 30.1332 4.35771 30.3145 4.24633 30.5733L4.21679 30.642L4.30635 30.6335C4.53745 30.6115 4.7717 30.759 4.84838 30.9782L5.13295 31.7919C5.15985 31.8688 5.24732 31.9323 5.33745 31.9328L5.39076 31.9331C5.64575 31.9345 5.8918 32.097 5.98781 32.3321L6.15717 32.7468C6.22187 32.6727 6.29637 32.5786 6.39052 32.4594L6.71716 32.0458C6.89183 31.8247 7.014 31.6695 7.08921 31.5412C7.16255 31.4162 7.17903 31.3365 7.16612 31.264C7.15321 31.1915 7.11038 31.1231 6.99876 31.0331C6.88428 30.9407 6.71664 30.8405 6.47722 30.6978L5.54612 30.1429C5.3067 30.0002 5.13875 29.9005 5.00307 29.8437Z" fill="white"/>
<path d="M6.14705 28.9948L7.20105 29.6229C7.23616 29.6438 7.26308 29.6598 7.28509 29.6764C7.44153 29.7943 7.51186 29.9876 7.48021 30.1728L5.53059 29.0109C5.67836 28.895 5.88188 28.8648 6.05999 28.9463C6.08505 28.9578 6.11195 28.9738 6.14705 28.9948Z" fill="white"/>
<path d="M5.56498 29.2163C5.355 29.0911 5.09885 29.1294 4.93 29.2821C4.92648 29.2853 4.923 29.2885 4.91956 29.2918C4.99173 29.3074 5.06218 29.3315 5.1309 29.3602C5.30788 29.4342 5.51404 29.557 5.75353 29.6998L5.77141 29.7104L6.79424 30.32C7.03374 30.4627 7.23991 30.5856 7.3892 30.706C7.44716 30.7528 7.50186 30.8033 7.54992 30.8593C7.55117 30.8548 7.55236 30.8502 7.55348 30.8455C7.60741 30.6244 7.51919 30.3809 7.30921 30.2557L5.56498 29.2163Z" fill="white"/>
</g>
</g>
<defs>
<filter id="filter0_d_112_762" x="8.38728" y="33.4515" width="5.85826" height="5.85856" filterUnits="userSpaceOnUse" color-interpolation-filters="sRGB">
<feFlood flood-opacity="0" result="BackgroundImageFix"/>
<feColorMatrix in="SourceAlpha" type="matrix" values="0 0 0 0 0 0 0 0 0 0 0 0 0 0 0 0 0 0 127 0" result="hardAlpha"/>
<feOffset dy="0.376674"/>
<feGaussianBlur stdDeviation="0.376674"/>
<feComposite in2="hardAlpha" operator="out"/>
<feColorMatrix type="matrix" values="0 0 0 0 0 0 0 0 0 0 0 0 0 0 0 0 0 0 0.12 0"/>
<feBlend mode="normal" in2="BackgroundImageFix" result="effect1_dropShadow_112_762"/>
<feBlend mode="normal" in="SourceGraphic" in2="effect1_dropShadow_112_762" result="shape"/>
</filter>
<filter id="filter1_d_112_762" x="1.45647" y="27.2712" width="8.43569" height="8.43529" filterUnits="userSpaceOnUse" color-interpolation-filters="sRGB">
<feFlood flood-opacity="0" result="BackgroundImageFix"/>
<feColorMatrix in="SourceAlpha" type="matrix" values="0 0 0 0 0 0 0 0 0 0 0 0 0 0 0 0 0 0 127 0" result="hardAlpha"/>
<feOffset dy="0.502232"/>
<feGaussianBlur stdDeviation="0.502232"/>
<feComposite in2="hardAlpha" operator="out"/>
<feColorMatrix type="matrix" values="0 0 0 0 0 0 0 0 0 0 0 0 0 0 0 0 0 0 0.12 0"/>
<feBlend mode="normal" in2="BackgroundImageFix" result="effect1_dropShadow_112_762"/>
<feBlend mode="normal" in="SourceGraphic" in2="effect1_dropShadow_112_762" result="shape"/>
</filter>
<linearGradient id="paint0_linear_112_762" x1="-4.30593e-07" y1="2.91469" x2="11.4506" y2="38.7825" gradientUnits="userSpaceOnUse">
<stop stop-color="#69B7FF"/>
<stop offset="1" stop-color="#0745E3"/>
</linearGradient>
<clipPath id="clip0_112_762">
<rect width="40" height="40" rx="10" fill="white"/>
</clipPath>
<clipPath id="clip1_112_762">
<rect width="32.8125" height="32.8125" fill="white" transform="translate(3.59375 3.59375)"/>
</clipPath>
</defs>
</svg>
