<svg width="100" height="100" viewBox="0 0 100 100" fill="none" xmlns="http://www.w3.org/2000/svg">
<g opacity="0.3">
<path d="M48.0914 87.1123C68.9162 87.1123 85.798 70.2304 85.798 49.4056C85.798 28.5808 68.9162 11.699 48.0914 11.699C27.2666 11.699 10.3848 28.5808 10.3848 49.4056C10.3848 70.2304 27.2666 87.1123 48.0914 87.1123Z" fill="#1ABC9C"/>
<path d="M28.8342 45.1429V36.3185C27.1191 37.9843 25.9646 38.8874 25.3707 39.0278C25.0871 39.0948 24.8355 39.0462 24.6162 38.8814C24.3967 38.7167 24.2871 38.4921 24.2871 38.2075C24.2871 37.8778 24.3949 37.6101 24.6111 37.4036C24.8271 37.1974 25.2086 36.9071 25.7555 36.5319C26.5723 35.9704 27.2254 35.4284 27.715 34.9054C28.2043 34.3825 28.6381 33.8241 29.0164 33.2306C29.3945 32.637 29.6408 32.2685 29.7557 32.1249C29.8705 31.9814 30.0865 31.8722 30.4039 31.7972C30.7617 31.7126 31.0486 31.7773 31.2648 31.9913C31.4807 32.2054 31.5889 32.545 31.5889 33.0105V44.114C31.5889 45.4134 31.1264 46.1724 30.2014 46.3909C29.7896 46.4882 29.4586 46.4339 29.2088 46.2278C28.959 46.0218 28.8342 45.6603 28.8342 45.1429Z" fill="white"/>
<path d="M44.5732 35.7801C44.5732 36.8405 44.5057 37.7678 44.3707 38.5626C44.2355 39.3575 43.9857 40.1081 43.6213 40.8149C43.1621 41.6862 42.568 42.4151 41.8389 43.0008C41.1098 43.5868 40.2996 43.9852 39.4084 44.1958C38.382 44.4383 37.4623 44.3778 36.6488 44.0139C35.8352 43.6502 35.2225 43.0256 34.8107 42.1403C34.6014 41.6532 34.4477 41.0963 34.35 40.4696C34.2521 39.843 34.2031 39.1516 34.2031 38.3952C34.2031 37.4192 34.257 36.5272 34.3652 35.7192C34.4732 34.9118 34.642 34.1993 34.8717 33.5827C35.2699 32.5575 35.8488 31.7114 36.6086 31.0436C37.368 30.3762 38.2744 29.9178 39.3275 29.669C40.0229 29.5047 40.6541 29.4639 41.2213 29.5463C41.7885 29.629 42.2861 29.828 42.715 30.1438C43.1438 30.4594 43.5066 30.8893 43.8037 31.4333C44.3166 32.3788 44.5732 33.8278 44.5732 35.7801ZM41.7984 36.2418C41.7984 35.0586 41.724 34.1083 41.5756 33.3901C41.427 32.6721 41.1771 32.1622 40.8264 31.8604C40.4752 31.5588 39.9891 31.4813 39.368 31.6282C38.4768 31.8387 37.8572 32.4149 37.5096 33.3571C37.1617 34.2991 36.9881 35.6655 36.9881 37.4561C36.9881 38.6715 37.0623 39.6495 37.2109 40.3901C37.3594 41.1307 37.6092 41.6584 37.9602 41.9731C38.3111 42.2877 38.7871 42.3741 39.3883 42.2321C40.0094 42.0854 40.4953 41.7635 40.8465 41.2668C41.1973 40.7704 41.4439 40.1206 41.5857 39.3176C41.7275 38.5147 41.7984 37.4895 41.7984 36.2418Z" fill="white"/>
<path d="M55.8609 33.1129C55.8609 34.1733 55.7934 35.1008 55.6584 35.8954C55.5232 36.6903 55.2734 37.4409 54.909 38.1477C54.4498 39.0192 53.8557 39.7479 53.1268 40.3336C52.3977 40.9196 51.5875 41.318 50.6963 41.5286C49.6699 41.7711 48.7502 41.7106 47.9367 41.3467C47.1229 40.9831 46.5103 40.3584 46.0986 39.4731C45.8893 38.986 45.7357 38.4292 45.6379 37.8024C45.54 37.1758 45.4912 36.4844 45.4912 35.728C45.4912 34.752 45.5451 33.86 45.6533 33.052C45.7613 32.2446 45.9301 31.5321 46.1598 30.9155C46.558 29.8903 47.1369 29.0442 47.8965 28.3764C48.6561 27.709 49.5623 27.2508 50.6156 27.002C51.3109 26.8377 51.9422 26.7969 52.5094 26.8793C53.0766 26.962 53.5744 27.161 54.0031 27.4768C54.4316 27.7926 54.7945 28.2223 55.0918 28.7665C55.6043 29.7116 55.8609 31.1606 55.8609 33.1129ZM53.0861 33.5747C53.0861 32.3915 53.0117 31.4411 52.8633 30.7229C52.7146 30.0049 52.4648 29.495 52.1139 29.1932C51.7629 28.8917 51.2766 28.8141 50.6555 28.9608C49.7643 29.1713 49.1449 29.7477 48.7973 30.6897C48.4494 31.6317 48.2758 32.9983 48.2758 34.7889C48.2758 36.0043 48.35 36.9823 48.4986 37.7229C48.6471 38.4635 48.8969 38.9913 49.248 39.3059C49.599 39.6204 50.075 39.7069 50.6762 39.5649C51.2971 39.4182 51.7832 39.0963 52.1344 38.5997C52.4853 38.103 52.732 37.4534 52.8736 36.6504C53.0152 35.8477 53.0861 34.8225 53.0861 33.5747Z" fill="white"/>
<path d="M60.908 31.4964C60.908 32.3606 60.7096 33.0497 60.3129 33.5642C59.916 34.0786 59.3727 34.4175 58.6828 34.5806C58.2576 34.6809 57.8762 34.6817 57.5385 34.5827C57.2008 34.4841 56.9373 34.2667 56.7484 33.9313C56.5594 33.5962 56.4648 33.1548 56.4648 32.6073C56.4648 32.0192 56.5381 31.511 56.6846 31.0829C56.8311 30.6548 57.0684 30.3001 57.3967 30.0188C57.725 29.7376 58.1443 29.5368 58.6545 29.4163C59.0229 29.3292 59.3465 29.3069 59.6252 29.3497C59.9039 29.3925 60.1402 29.5028 60.334 29.6809C60.5275 29.8593 60.6717 30.0977 60.7662 30.3966C60.8607 30.6956 60.908 31.062 60.908 31.4964ZM59.5828 31.7417C59.5828 31.1491 59.5166 30.7339 59.3844 30.496C59.2521 30.2581 59.0182 30.1786 58.6828 30.2581C58.4561 30.3116 58.2754 30.4188 58.1408 30.5796C58.0062 30.7403 57.9141 30.952 57.8645 31.2147C57.8148 31.4776 57.79 31.8036 57.79 32.1927C57.79 32.5954 57.8148 32.9173 57.8645 33.1589C57.9141 33.4007 58.0049 33.5702 58.1373 33.6677C58.2695 33.7653 58.4514 33.7868 58.6828 33.7323C59.0326 33.6497 59.2697 33.4511 59.3951 33.1366C59.5203 32.8218 59.5828 32.3569 59.5828 31.7417ZM65.6348 28.6626L59.7316 39.1708C59.5803 39.4554 59.4102 39.62 59.2213 39.6645C59.1125 39.6901 59.0039 39.6763 58.8953 39.6227C58.7865 39.5694 58.7324 39.4792 58.7324 39.3524C58.7324 39.2575 58.7797 39.1309 58.8742 38.9729L64.8127 28.3819C64.9166 28.1899 65.0076 28.0429 65.0855 27.9407C65.1635 27.8386 65.2758 27.7702 65.4221 27.7356C65.5639 27.7022 65.6783 27.7147 65.7658 27.7731C65.8531 27.8317 65.8969 27.9265 65.8969 28.0577C65.8971 28.153 65.8096 28.3546 65.6348 28.6626ZM68.1646 34.6878C68.1646 35.552 67.9662 36.2411 67.5693 36.7556C67.1725 37.2702 66.6293 37.6089 65.9394 37.7718C65.5094 37.8735 65.1256 37.8737 64.7879 37.7725C64.45 37.6712 64.1855 37.4558 63.9943 37.1255C63.8029 36.7952 63.7072 36.354 63.7072 35.802C63.7072 34.9198 63.8832 34.2145 64.2352 33.6858C64.5871 33.1571 65.1457 32.8022 65.9111 32.6214C66.2797 32.5343 66.6021 32.5124 66.8785 32.5558C67.1549 32.5989 67.391 32.7061 67.5871 32.877C67.7832 33.0477 67.9285 33.2839 68.0229 33.5849C68.1174 33.8858 68.1646 34.2534 68.1646 34.6878ZM66.8394 34.9329C66.8394 34.3495 66.7732 33.939 66.641 33.7007C66.5088 33.4628 66.2748 33.3835 65.9394 33.4626C65.7031 33.5184 65.5189 33.6255 65.3867 33.7833C65.2543 33.9415 65.1611 34.1499 65.1068 34.4095C65.0523 34.6688 65.0254 34.9952 65.0254 35.3888C65.0254 35.995 65.0928 36.4224 65.2273 36.671C65.3619 36.9196 65.5994 37.0038 65.9394 36.9233C66.2844 36.8419 66.5205 36.6425 66.648 36.3249C66.7758 36.0079 66.8394 35.5436 66.8394 34.9329Z" fill="white"/>
<path d="M48.091 83.1266C66.7146 83.1266 81.8119 68.0293 81.8119 49.4057C81.8119 30.7822 66.7146 15.6848 48.091 15.6848C29.4675 15.6848 14.3701 30.7822 14.3701 49.4057C14.3701 68.0293 29.4675 83.1266 48.091 83.1266Z" stroke="white" stroke-width="7" stroke-miterlimit="10" stroke-linecap="round" stroke-linejoin="round"/>
<path d="M86.3281 48.0032L96.0924 44.8579L93.9818 55.9304L96.0965 65.9759L86.3281 69.2407V48.0032Z" fill="#147562"/>
<path d="M13.6717 88.9473L3.98809 92.0928L6.13906 81.0203L3.96387 70.9748L13.6717 67.71V88.9473Z" fill="#147562"/>
<path d="M89.2578 62.7648L10.7422 84.7697V61.4468L89.2578 39.4421V62.7648Z" fill="#16A085"/>
<path d="M22.0875 70.0318V71.6396C22.0875 71.8533 22.066 72.0296 22.023 72.1693C21.9801 72.3087 21.901 72.4458 21.7857 72.5802C21.6705 72.7146 21.523 72.854 21.3434 72.9984C20.824 73.4148 20.324 73.7511 19.8437 74.0081C19.3635 74.2652 18.8398 74.4706 18.2736 74.6249C17.6137 74.805 17.0121 74.8699 16.4693 74.8195C15.9266 74.7691 15.4637 74.6072 15.0809 74.3339C14.6982 74.0609 14.4043 73.6831 14.1992 73.2011C13.9941 72.7191 13.8916 72.1462 13.8916 71.4824C13.8916 70.83 13.991 70.206 14.1902 69.6099C14.3895 69.014 14.6824 68.4745 15.0691 67.9913C15.4559 67.5081 15.9264 67.0911 16.4811 66.7396C17.0355 66.388 17.6645 66.1165 18.3674 65.9247C18.9453 65.7671 19.457 65.7031 19.9021 65.7324C20.3473 65.7617 20.7086 65.8531 20.9859 66.0062C21.2633 66.1595 21.4723 66.3447 21.6127 66.562C21.7531 66.7794 21.8236 66.9872 21.8236 67.1855C21.8236 67.3992 21.7426 67.6033 21.5805 67.7982C21.4184 67.9931 21.224 68.1214 20.9977 68.1831C20.8727 68.2173 20.7525 68.2214 20.6373 68.1954C20.5221 68.1697 20.4254 68.116 20.3473 68.0343C20.1324 67.7648 19.951 67.5663 19.8025 67.439C19.6541 67.3117 19.4539 67.2249 19.2021 67.1792C18.9502 67.1335 18.6289 67.1638 18.2385 67.2704C17.8361 67.3802 17.477 67.5456 17.1604 67.7675C16.8439 67.9892 16.5736 68.2595 16.349 68.5779C16.1244 68.8968 15.9525 69.2591 15.8334 69.6654C15.7143 70.0718 15.6547 70.5019 15.6547 70.9558C15.6547 71.94 15.8861 72.6341 16.3488 73.038C16.8117 73.4421 17.457 73.5312 18.285 73.3056C18.6873 73.1958 19.065 73.0413 19.4186 72.8419C19.7721 72.6425 20.1303 72.3982 20.4936 72.1083V70.7464L19.1463 71.1138C18.8221 71.2021 18.577 71.2212 18.4109 71.1712C18.2449 71.121 18.1621 70.9816 18.1621 70.7527C18.1621 70.5658 18.2313 70.3921 18.3699 70.2324C18.5086 70.0726 18.6971 69.9601 18.9354 69.8951L20.9096 69.3568C21.1516 69.2908 21.3568 69.2558 21.5246 69.2521C21.6924 69.2482 21.8281 69.3048 21.9316 69.4214C22.0355 69.5386 22.0875 69.7419 22.0875 70.0318Z" fill="white"/>
<path d="M23.1816 69.6762V65.6422C23.1816 65.2989 23.2605 65.0198 23.4187 64.8051C23.577 64.5903 23.785 64.4479 24.0426 64.3776C24.3121 64.3042 24.526 64.3317 24.684 64.4602C24.8422 64.5887 24.9213 64.8247 24.9213 65.168V69.2936C24.9213 69.7628 24.9748 70.1401 25.0824 70.4256C25.1898 70.711 25.3801 70.9032 25.6535 71.0022C25.9268 71.1014 26.3096 71.0837 26.8018 70.9495C27.4813 70.7643 27.9617 70.4569 28.2428 70.0272C28.5238 69.5975 28.6646 69.0243 28.6646 68.3071V64.1471C28.6646 63.8001 28.7426 63.5202 28.8988 63.3079C29.0551 63.0956 29.2641 62.9538 29.5256 62.8823C29.7871 62.811 29.9992 62.8379 30.1611 62.9635C30.3232 63.0893 30.4043 63.3256 30.4043 63.6727V67.7067C30.4043 68.3628 30.3389 68.928 30.208 69.4024C30.0771 69.877 29.8301 70.3294 29.4668 70.7604C29.1543 71.1278 28.7912 71.4329 28.3773 71.6754C27.9633 71.918 27.4789 72.1151 26.9244 72.2661C26.2643 72.4461 25.6961 72.5313 25.2195 72.5221C24.743 72.5129 24.3545 72.4034 24.0537 72.1932C23.7529 71.9835 23.5324 71.6698 23.3918 71.2524C23.2512 70.835 23.1816 70.3094 23.1816 69.6762Z" fill="white"/>
<path d="M36.6064 68.5337L36.1963 67.5926L32.7049 68.5446L32.2947 69.7323C32.1346 70.1954 31.9979 70.5161 31.8846 70.6938C31.7711 70.8715 31.5857 70.9956 31.3279 71.0657C31.1092 71.1255 30.9158 71.0999 30.748 70.9891C30.5801 70.8786 30.4961 70.7241 30.4961 70.5256C30.4961 70.4112 30.5156 70.2876 30.5547 70.1551C30.5936 70.0223 30.658 69.835 30.748 69.593L32.9449 63.5467C33.0074 63.3733 33.0826 63.1649 33.1705 62.9215C33.2584 62.6784 33.352 62.4706 33.4516 62.2987C33.5512 62.1264 33.682 61.9735 33.8441 61.8397C34.0062 61.7057 34.2062 61.6065 34.4445 61.5415C34.6865 61.4754 34.8887 61.4651 35.0508 61.5106C35.2129 61.5561 35.3437 61.636 35.4434 61.7499C35.543 61.8639 35.6268 61.9926 35.6953 62.1362C35.7637 62.2797 35.8506 62.4725 35.9559 62.7147L38.1996 67.5159C38.3752 67.8799 38.4633 68.1553 38.4633 68.3422C38.4633 68.5368 38.3803 68.7378 38.2143 68.9452C38.0482 69.1528 37.848 69.2883 37.6139 69.3522C37.4771 69.3893 37.36 69.3975 37.2623 69.3764C37.1646 69.3555 37.0826 69.313 37.0162 69.2491C36.9498 69.1852 36.8785 69.0788 36.8023 68.9296C36.7266 68.7801 36.6609 68.6483 36.6064 68.5337ZM33.1617 67.1438L35.7277 66.4442L34.433 63.3354L33.1617 67.1438Z" fill="white"/>
<path d="M41.5021 64.561L40.893 64.7272V67.4223C40.893 67.777 40.8129 68.0602 40.6529 68.2717C40.4928 68.4833 40.2838 68.6243 40.0262 68.6944C39.7488 68.77 39.534 68.7407 39.3816 68.6069C39.2295 68.4729 39.1533 68.2364 39.1533 67.8967V61.4422C39.1533 61.076 39.2373 60.7879 39.4053 60.5782C39.573 60.3684 39.8447 60.2124 40.2195 60.1102L43.049 59.3387C43.4396 59.2323 43.7734 59.1573 44.0508 59.1143C44.3279 59.0711 44.5779 59.0688 44.8006 59.1073C45.0699 59.1444 45.3082 59.2377 45.5152 59.3874C45.7223 59.537 45.8795 59.7335 45.9869 59.977C46.0943 60.2206 46.148 60.4948 46.148 60.8001C46.148 61.4256 45.9674 61.9747 45.6063 62.4471C45.2449 62.9194 44.6973 63.3338 43.9631 63.6903C44.2715 63.7667 44.5664 63.9225 44.8477 64.1586C45.1289 64.3948 45.3797 64.6592 45.6004 64.952C45.8209 65.2448 45.993 65.5165 46.116 65.767C46.2389 66.0176 46.3004 66.1963 46.3004 66.3032C46.3004 66.4137 46.2643 66.5334 46.192 66.6618C46.1197 66.7901 46.0211 66.9028 45.8963 66.9999C45.7711 67.0969 45.6268 67.1676 45.4627 67.2126C45.2674 67.2657 45.1033 67.2655 44.9705 67.2122C44.8377 67.1588 44.7234 67.0764 44.6277 66.9651C44.532 66.8538 44.4021 66.687 44.2381 66.4647L43.541 65.5217C43.291 65.1743 43.0674 64.9184 42.8703 64.7547C42.673 64.5911 42.4729 64.4969 42.2699 64.4723C42.0664 64.4471 41.8107 64.4768 41.5021 64.561ZM42.498 60.7645L40.893 61.2022V63.5083L42.4514 63.0833C42.8691 62.9694 43.2207 62.8381 43.5059 62.6899C43.7908 62.5415 44.0086 62.362 44.159 62.1512C44.3094 61.9405 44.3846 61.6864 44.3846 61.3889C44.3846 61.1563 44.3238 60.9676 44.2029 60.8233C44.0818 60.679 43.9139 60.592 43.6992 60.5629C43.4959 60.5346 43.0957 60.6016 42.498 60.7645Z" fill="white"/>
<path d="M52.7137 64.142L52.3035 63.201L48.8121 64.153L48.402 65.3405C48.2418 65.8038 48.1051 66.1243 47.9918 66.302C47.8785 66.4797 47.6932 66.6038 47.4354 66.6741C47.2164 66.7338 47.0232 66.7083 46.8555 66.5975C46.6875 66.487 46.6035 66.3325 46.6035 66.134C46.6035 66.0196 46.623 65.896 46.6621 65.7633C46.701 65.6307 46.7654 65.4432 46.8555 65.2014L49.0523 59.1551C49.1148 58.9815 49.19 58.7733 49.2779 58.5299C49.3658 58.2868 49.4596 58.079 49.5592 57.9069C49.6588 57.7348 49.7895 57.5819 49.9516 57.4479C50.1137 57.3141 50.3137 57.2147 50.5522 57.1499C50.7941 57.0838 50.9963 57.0735 51.1584 57.119C51.3205 57.1643 51.4514 57.2442 51.551 57.3583C51.6506 57.4723 51.7346 57.601 51.8029 57.7446C51.8713 57.888 51.958 58.0809 52.0635 58.3229L54.3072 63.1243C54.483 63.4883 54.5709 63.7637 54.5709 63.9506C54.5709 64.1452 54.4879 64.3462 54.3219 64.5536C54.1559 64.761 53.9559 64.8965 53.7215 64.9604C53.5848 64.9977 53.4676 65.0057 53.3701 64.9848C53.2725 64.9637 53.1904 64.9214 53.124 64.8575C53.0576 64.7936 52.9863 64.687 52.9103 64.5379C52.8336 64.3887 52.7682 64.2569 52.7137 64.142ZM49.2689 62.7524L51.8348 62.0528L50.5402 58.944L49.2689 62.7524Z" fill="white"/>
<path d="M57.5389 56.2631L60.8838 60.295V55.3053C60.8838 54.9811 60.9551 54.7184 61.0977 54.5176C61.24 54.3166 61.4324 54.183 61.6748 54.117C61.9246 54.0487 62.1219 54.0762 62.2664 54.1989C62.4109 54.3215 62.4832 54.545 62.4832 54.8694V61.4668C62.4832 62.2032 62.1707 62.6565 61.5459 62.8268C61.3896 62.8694 61.249 62.8858 61.124 62.876C60.9988 62.8662 60.8818 62.8285 60.7725 62.7629C60.6631 62.6975 60.5615 62.6135 60.4678 62.5114C60.3742 62.4092 60.2803 62.3039 60.1865 62.1961L56.9234 58.1991V63.1143C56.9234 63.4348 56.8475 63.6977 56.6951 63.9034C56.5428 64.109 56.3475 64.2442 56.1092 64.309C55.8631 64.3762 55.6658 64.3469 55.5176 64.2215C55.3689 64.0959 55.2949 63.875 55.2949 63.5582V57.0866C55.2949 56.8119 55.3262 56.5879 55.3887 56.4145C55.4629 56.2227 55.5857 56.0489 55.7578 55.8934C55.9295 55.7377 56.1152 55.6328 56.3145 55.5785C56.4705 55.536 56.6043 55.5244 56.7156 55.5434C56.827 55.5627 56.9244 55.603 57.0086 55.6639C57.0926 55.725 57.1785 55.8102 57.2662 55.9198C57.3543 56.0293 57.4451 56.1438 57.5389 56.2631Z" fill="white"/>
<path d="M69.3879 53.5588L67.4898 54.0762V60.1702C67.4898 60.5211 67.4096 60.8034 67.2496 61.0168C67.0895 61.2303 66.8824 61.3715 66.6285 61.4409C66.3707 61.511 66.1607 61.4825 65.9986 61.3551C65.8365 61.2278 65.7555 60.9903 65.7555 60.643V54.5491L63.8574 55.0664C63.5605 55.1475 63.3398 55.1438 63.1953 55.0553C63.0508 54.9668 62.9785 54.8178 62.9785 54.608C62.9785 54.3907 63.0537 54.1983 63.2041 54.0315C63.3545 53.8647 63.5723 53.7424 63.8574 53.6645L69.3875 52.1567C69.6883 52.0746 69.9117 52.0787 70.0582 52.1684C70.2047 52.2582 70.2779 52.408 70.2779 52.6178C70.2779 52.8276 70.2037 53.0166 70.0553 53.185C69.9072 53.3534 69.6846 53.478 69.3879 53.5588Z" fill="white"/>
<path d="M76.3926 51.5575L72.4734 52.626V54.686L76.0822 53.7022C76.3477 53.6297 76.5459 53.6338 76.6768 53.7145C76.8076 53.7952 76.873 53.9309 76.873 54.1217C76.873 54.3126 76.8086 54.4852 76.6797 54.6407C76.5508 54.7959 76.3516 54.9104 76.0822 54.9838L72.4734 55.9676V58.3538L76.5273 57.2487C76.8006 57.1741 77.0068 57.1797 77.1455 57.2661C77.284 57.3522 77.3533 57.4983 77.3533 57.7043C77.3533 57.9028 77.284 58.0829 77.1455 58.2446C77.0068 58.4063 76.8008 58.5247 76.5273 58.5991L71.7996 59.8881C71.4209 59.9913 71.1484 59.9834 70.9824 59.8649C70.8164 59.7461 70.7334 59.5036 70.7334 59.1374V52.8317C70.7334 52.5875 70.7705 52.3782 70.8447 52.2034C70.9189 52.0286 71.0352 51.8844 71.1934 51.7706C71.3516 51.6569 71.5537 51.5665 71.7996 51.4995L76.3926 50.2471C76.6699 50.1715 76.876 50.1754 77.0107 50.259C77.1455 50.3424 77.2129 50.4815 77.2129 50.676C77.2129 50.8745 77.1455 51.052 77.0107 51.209C76.8758 51.3655 76.6699 51.4819 76.3926 51.5575Z" fill="white"/>
<path d="M83.8193 49.5325L79.9002 50.6011V52.661L83.509 51.6772C83.7744 51.6048 83.9727 51.6089 84.1035 51.6895C84.2344 51.7702 84.2998 51.9058 84.2998 52.0966C84.2998 52.2874 84.2354 52.4603 84.1064 52.6157C83.9775 52.771 83.7785 52.8853 83.509 52.9589L79.9002 53.9427V56.3288L83.9541 55.2235C84.2273 55.1491 84.4336 55.1548 84.5723 55.2411C84.7107 55.3272 84.7801 55.4733 84.7801 55.6794C84.7801 55.8778 84.7107 56.0579 84.5723 56.2196C84.4336 56.3813 84.2275 56.4997 83.9541 56.5739L79.2264 57.8632C78.8477 57.9663 78.5752 57.9585 78.4092 57.8399C78.2432 57.7212 78.1602 57.4786 78.1602 57.1124V50.8067C78.1602 50.5626 78.1973 50.3532 78.2715 50.1784C78.3455 50.0036 78.4619 49.8595 78.6199 49.7458C78.7783 49.6321 78.9803 49.5417 79.2262 49.4747L83.8191 48.2224C84.0965 48.1468 84.3025 48.1507 84.4373 48.2341C84.5721 48.3175 84.6395 48.4565 84.6395 48.6511C84.6395 48.8495 84.5721 49.027 84.4373 49.1841C84.3025 49.3411 84.0967 49.4569 83.8193 49.5325Z" fill="white"/>
</g>
</svg>
