<svg width="327" height="68" viewBox="0 0 327 68" fill="none" xmlns="http://www.w3.org/2000/svg">
<path d="M27.2368 2.2295C24.1823 4.6444 23.5861 8.17038 23.6029 8.13161C23.6346 8.11075 26.7007 7.245 29.3803 5.14803C32.0299 3.02895 33.9234 0.0314115 33.9537 0.00881695C33.9994 -0.00711035 30.2892 -0.184904 27.2368 2.2295Z" fill="url(#paint0_linear_264_811)"/>
<path d="M18.4802 6.92189C18.1115 9.87967 20.053 11.3144 20.0256 11.3215C20.0122 11.2919 21.9809 8.38843 22.6239 5.60436C23.2554 2.79042 21.9063 0.893835 21.8768 0.89865C21.8565 0.85593 18.8307 3.92052 18.4802 6.92189Z" fill="url(#paint1_linear_264_811)"/>
<path d="M14.2367 13.6126C14.4357 16.5463 16.5928 17.5831 16.5683 17.5958C16.5515 17.5675 17.9297 14.3912 18.0039 11.5839C18.0637 8.75081 16.3801 7.16277 16.3548 7.1724C16.3313 7.13314 14.0148 10.6406 14.2367 13.6126Z" fill="url(#paint2_linear_264_811)"/>
<path d="M11.3249 20.8949C12.0435 23.7174 14.3415 24.3247 14.3207 24.3413C14.3016 24.3159 15.0904 20.9635 14.6431 18.223C14.178 15.4605 12.237 14.2314 12.2144 14.2447C12.1879 14.2102 10.5769 18.0394 11.3249 20.8949Z" fill="url(#paint3_linear_264_811)"/>
<path d="M9.74429 28.5484C10.937 31.1749 13.2994 31.3399 13.2819 31.3589C13.2586 31.338 13.4605 27.9028 12.5407 25.3137C11.6001 22.7041 9.47353 21.8712 9.4546 21.8876C9.42278 21.8592 8.52167 25.8925 9.74429 28.5484Z" fill="url(#paint4_linear_264_811)"/>
<path d="M9.49594 36.3534C11.1154 38.7101 13.4668 38.4257 13.4528 38.4481C13.4261 38.4313 13.0434 35.0147 11.6973 32.6483C10.3266 30.2682 8.09211 29.8521 8.07673 29.8725C8.04325 29.8475 7.84335 33.9713 9.49594 36.3534Z" fill="url(#paint5_linear_264_811)"/>
<path d="M10.5791 44.0892C12.5761 46.1097 14.8431 45.3846 14.833 45.409C14.8031 45.3962 13.8363 42.0916 12.1127 40.0181C10.3592 37.9332 8.09102 37.9497 8.07954 37.9714C8.04216 37.9532 8.54311 42.05 10.5791 44.0892Z" fill="url(#paint6_linear_264_811)"/>
<path d="M12.9942 51.5356C15.3227 53.1618 17.4296 52.016 17.4227 52.0417C17.3887 52.0359 15.8433 48.938 13.7871 47.2152C11.6991 45.4836 9.47151 45.9323 9.46382 45.9551C9.42455 45.9439 10.6246 49.8975 12.9942 51.5356Z" fill="url(#paint7_linear_264_811)"/>
<path d="M16.7411 58.473C19.353 59.6531 21.2265 58.1189 21.2217 58.1464C21.185 58.1456 19.0594 55.3542 16.72 54.0313C14.3457 52.7077 12.2347 53.5699 12.2293 53.596C12.1855 53.5904 14.0831 57.2867 16.7411 58.473Z" fill="url(#paint8_linear_264_811)"/>
<path d="M21.8197 64.6807C24.6679 65.3704 26.2307 63.4978 26.2305 63.5228C26.1885 63.5285 23.4893 61.1369 20.9124 60.2585C18.2974 59.3839 16.3789 60.6407 16.3761 60.6654C16.3295 60.6691 18.9227 63.9919 21.8197 64.6807Z" fill="url(#paint9_linear_264_811)"/>
<path d="M25.6901 12.9975C23.3659 13.5967 21.4156 12.375 21.4152 12.351C21.3736 12.3515 23.4771 9.51902 26.0349 9.06726C28.5508 8.61907 30.1386 10.4502 30.1405 10.4279C30.1056 10.4265 27.9809 12.4 25.6901 12.9975Z" fill="url(#paint10_linear_264_811)"/>
<path d="M22.4021 18.1816C20.2528 19.1879 18.1175 18.3631 18.1154 18.3392C18.0774 18.3472 19.5978 15.2125 21.9805 14.315C24.3235 13.4269 26.2142 14.9139 26.2131 14.89C26.1827 14.895 24.5222 17.1811 22.4021 18.1816Z" fill="url(#paint11_linear_264_811)"/>
<path d="M20.1459 23.8241C18.2196 25.2058 15.9771 24.8007 15.9702 24.7773C15.9348 24.7911 16.8704 21.453 19.031 20.1419C21.1548 18.8469 23.2734 19.9441 23.2683 19.9207C23.2399 19.9305 22.0467 22.4532 20.1459 23.8241Z" fill="url(#paint12_linear_264_811)"/>
<path d="M18.9214 29.7543C17.2645 31.4693 14.9886 31.496 14.9789 31.4749C14.9477 31.4952 15.2949 28.0474 17.1858 26.3649C19.0451 24.701 21.3137 25.3795 21.3054 25.3571C21.2807 25.3721 20.5551 28.0546 18.9214 29.7543Z" fill="url(#paint13_linear_264_811)"/>
<path d="M18.7288 35.8019C17.3893 37.8021 15.1545 38.2597 15.1417 38.2409C15.1137 38.2644 14.8729 34.8094 16.4455 32.8023C17.9891 30.8212 20.3369 31.0577 20.3248 31.0367C20.3039 31.0537 20.0487 33.8198 18.7288 35.8019Z" fill="url(#paint14_linear_264_811)"/>
<path d="M19.5679 41.7958C18.5947 44.0241 16.4754 44.9016 16.4591 44.8844C16.4342 44.9121 15.6023 41.5428 16.8099 39.2699C17.9927 37.0266 20.3418 36.8153 20.3269 36.7971C20.3091 36.8169 20.5274 39.5892 19.5679 41.7958Z" fill="url(#paint15_linear_264_811)"/>
<path d="M21.4392 47.5655C20.8765 49.9576 18.9506 51.2274 18.9306 51.215C18.9084 51.2467 17.4838 48.0632 18.2794 45.5866C19.0533 43.1445 21.3312 42.492 21.3114 42.4759C21.2964 42.4978 21.9896 45.1974 21.4392 47.5655Z" fill="url(#paint16_linear_264_811)"/>
<path d="M24.3428 52.9411C24.2413 55.4251 22.5814 57.0528 22.5569 57.0414C22.5389 57.0751 20.5184 54.1742 20.854 51.5686C21.1713 48.9982 23.3007 47.9231 23.2789 47.9109C23.2682 47.9363 24.4355 50.4812 24.3428 52.9411Z" fill="url(#paint17_linear_264_811)"/>
<path d="M28.2774 57.7507C28.6823 60.2481 27.3644 62.18 27.3367 62.1726C27.3226 62.2109 24.7038 59.6923 24.5328 57.0335C24.3468 54.4148 26.2532 52.948 26.2281 52.939C26.221 52.9664 27.8668 55.2801 28.2774 57.7507Z" fill="url(#paint18_linear_264_811)"/>
<path d="M33.8561 68C33.9214 67.8665 33.9867 67.7323 34.0519 67.599C12.0374 55.954 8.27757 26.6214 22.9836 8.96959C22.961 8.94897 22.9382 8.92835 22.9156 8.90785C22.8935 8.88798 22.8712 8.86785 22.8494 8.84772C8.00693 26.5125 11.6184 56.1212 33.8561 68Z" fill="url(#paint19_linear_264_811)"/>
<path d="M112.289 20.6875C109.094 20.6875 107.062 18.4375 107.062 14.8594V14.8516C107.062 11.2734 109.094 9.03906 112.289 9.03906C114.773 9.03906 116.641 10.5703 116.992 12.7969L117.008 12.8672H115.273L115.227 12.7109C114.852 11.3906 113.805 10.5859 112.289 10.5859C110.195 10.5859 108.852 12.2422 108.852 14.8516V14.8594C108.852 17.4688 110.203 19.1406 112.289 19.1406C113.789 19.1406 114.828 18.3594 115.25 16.9297L115.273 16.8594H117.008L117 16.9375C116.648 19.1797 114.781 20.6875 112.289 20.6875ZM118.594 20.5V9.22656H120.344V18.9922H125.594V20.5H118.594ZM127.094 20.5V9.22656H134.25V10.7344H128.844V14.0234H133.961V15.4922H128.844V18.9922H134.25V20.5H127.094ZM135.211 20.5L139.312 9.22656H141.203L145.297 20.5H143.461L142.43 17.4531H138.086L137.047 20.5H135.211ZM140.242 11.0938L138.555 16.0469H141.953L140.273 11.0938H140.242ZM146.547 20.5V9.22656H148.164L153.961 17.5625H154.008V9.22656H155.742V20.5H154.133L148.328 12.1484H148.281V20.5H146.547ZM157.828 20.5V9.22656H164.984V10.7344H159.578V14.0234H164.695V15.4922H159.578V18.9922H164.984V20.5H157.828ZM166.781 20.5V9.22656H170.758C174.102 9.22656 176.094 11.2812 176.094 14.8281V14.8438C176.094 18.4062 174.117 20.5 170.758 20.5H166.781ZM168.531 18.9844H170.594C172.984 18.9844 174.305 17.5234 174.305 14.8594V14.8438C174.305 12.1953 172.969 10.7344 170.594 10.7344H168.531V18.9844ZM185.891 20.6875C182.641 20.6875 180.609 18.4531 180.609 14.8672V14.8516C180.609 11.2734 182.648 9.03906 185.891 9.03906C189.141 9.03906 191.172 11.2812 191.172 14.8516V14.8672C191.172 18.4453 189.148 20.6875 185.891 20.6875ZM185.891 19.1406C188.055 19.1406 189.383 17.4688 189.383 14.8672V14.8516C189.383 12.2344 188.031 10.5859 185.891 10.5859C183.758 10.5859 182.391 12.2266 182.391 14.8516V14.8672C182.391 17.4922 183.75 19.1406 185.891 19.1406ZM195.633 20.5L191.617 9.22656H193.5L196.578 18.5547H196.617L199.695 9.22656H201.578L197.562 20.5H195.633ZM202.828 20.5V9.22656H209.984V10.7344H204.578V14.0234H209.695V15.4922H204.578V18.9922H209.984V20.5H202.828ZM211.781 20.5V9.22656H216.156C218.461 9.22656 219.914 10.5625 219.914 12.6797V12.6953C219.914 14.2266 219.078 15.4453 217.727 15.9062L220.25 20.5H218.234L215.938 16.1719H213.531V20.5H211.781ZM213.531 14.7344H215.984C217.336 14.7344 218.109 13.9922 218.109 12.7109V12.6953C218.109 11.4453 217.281 10.6953 215.938 10.6953H213.531V14.7344Z" fill="#2E2E2E" fill-opacity="0.7"/>
<path d="M75.4025 53.7686C72.1798 53.7686 69.9884 51.8457 69.7843 49.2783L69.7736 49.1387H72.3732L72.3839 49.2139C72.6095 50.5137 73.7912 51.5127 75.424 51.5127C77.2716 51.5127 78.55 50.2451 78.55 48.4297V48.4082C78.55 46.6357 77.2502 45.3682 75.4347 45.3682C74.5539 45.3682 73.7912 45.6367 73.2003 46.1309C72.9103 46.3672 72.6525 46.668 72.4699 47.0117H70.0529L70.7941 37.999H80.3117V40.2656H73.007L72.5773 44.9385H72.631C73.3078 43.8965 74.5861 43.2842 76.1437 43.2842C79.0978 43.2842 81.2248 45.4219 81.2248 48.3652V48.3867C81.2248 51.5771 78.8293 53.7686 75.4025 53.7686ZM88.9127 53.7686C85.1099 53.7686 82.8219 50.6855 82.8219 45.7549V45.7334C82.8219 40.8027 85.1099 37.7305 88.9127 37.7305C92.7047 37.7305 95.0035 40.8027 95.0035 45.7334V45.7549C95.0035 50.6855 92.7047 53.7686 88.9127 53.7686ZM88.9127 51.502C90.9967 51.502 92.2105 49.332 92.2105 45.7549V45.7334C92.2105 42.1562 90.9967 40.0078 88.9127 40.0078C86.818 40.0078 85.6148 42.1562 85.6148 45.7334V45.7549C85.6148 49.332 86.818 51.502 88.9127 51.502ZM97.127 48.3975V46.0127H101.628V41.7695H104.002V46.0127H108.514V48.3975H104.002V52.6406H101.628V48.3975H97.127ZM115.425 53.5V37.999H118.626L123.374 49.8369H123.449L128.197 37.999H131.398V53.5H128.906V42.4785H128.82L124.351 53.5H122.472L118.003 42.4785H117.928V53.5H115.425ZM135.23 40.4805C134.392 40.4805 133.737 39.8145 133.737 39.0195C133.737 38.2031 134.392 37.5479 135.23 37.5479C136.068 37.5479 136.712 38.2031 136.712 39.0195C136.712 39.8145 136.068 40.4805 135.23 40.4805ZM133.887 53.5V42.1133H136.562V53.5H133.887ZM138.857 53.5V37.999H141.532V53.5H138.857ZM143.827 53.5V37.999H146.502V53.5H143.827ZM150.14 40.4805C149.302 40.4805 148.647 39.8145 148.647 39.0195C148.647 38.2031 149.302 37.5479 150.14 37.5479C150.978 37.5479 151.623 38.2031 151.623 39.0195C151.623 39.8145 150.978 40.4805 150.14 40.4805ZM148.797 53.5V42.1133H151.472V53.5H148.797ZM158.73 53.7256C155.379 53.7256 153.22 51.4912 153.22 47.8066V47.7852C153.22 44.1328 155.411 41.877 158.72 41.877C162.039 41.877 164.241 44.1113 164.241 47.7852V47.8066C164.241 51.502 162.071 53.7256 158.73 53.7256ZM158.741 51.5664C160.428 51.5664 161.513 50.1914 161.513 47.8066V47.7852C161.513 45.4111 160.417 44.0469 158.72 44.0469C157.055 44.0469 155.948 45.4219 155.948 47.7852V47.8066C155.948 50.2021 157.033 51.5664 158.741 51.5664ZM165.903 53.5V42.1133H168.578V43.8965H168.631C169.222 42.6719 170.382 41.877 172.112 41.877C174.615 41.877 176.043 43.4883 176.043 46.1309V53.5H173.369V46.668C173.369 45.0459 172.617 44.1328 171.091 44.1328C169.555 44.1328 168.578 45.25 168.578 46.8936V53.5H165.903ZM182.75 53.5V37.999H188.411C193.031 37.999 195.781 40.792 195.781 45.6904V45.7119C195.781 50.6211 193.052 53.5 188.411 53.5H182.75ZM185.522 51.1582H188.121C191.237 51.1582 192.955 49.2568 192.955 45.7227V45.7012C192.955 42.2422 191.204 40.3408 188.121 40.3408H185.522V51.1582ZM202.663 53.7256C199.247 53.7256 197.184 51.459 197.184 47.8389V47.8281C197.184 44.2402 199.279 41.877 202.534 41.877C205.789 41.877 207.808 44.165 207.808 47.6025V48.4619H199.838C199.881 50.46 200.976 51.6416 202.717 51.6416C204.049 51.6416 204.919 50.9326 205.176 50.1699L205.198 50.0947H207.701L207.669 50.2129C207.314 51.9639 205.638 53.7256 202.663 53.7256ZM202.566 43.9717C201.148 43.9717 200.085 44.9277 199.87 46.6787H205.209C205.015 44.874 203.984 43.9717 202.566 43.9717ZM212.123 53.5L208.095 42.1133H210.942L213.584 51.0186H213.649L216.28 42.1133H219.073L215.067 53.5H212.123ZM221.669 40.4805C220.832 40.4805 220.176 39.8145 220.176 39.0195C220.176 38.2031 220.832 37.5479 221.669 37.5479C222.507 37.5479 223.152 38.2031 223.152 39.0195C223.152 39.8145 222.507 40.4805 221.669 40.4805ZM220.327 53.5V42.1133H223.002V53.5H220.327ZM230.249 53.7256C226.865 53.7256 224.749 51.4482 224.749 47.7959V47.7852C224.749 44.1543 226.897 41.877 230.217 41.877C233.214 41.877 235.083 43.7783 235.244 46.0557L235.255 46.1416H232.73L232.709 46.0449C232.483 44.9385 231.667 44.0469 230.249 44.0469C228.562 44.0469 227.478 45.4756 227.478 47.8066V47.8174C227.478 50.1914 228.573 51.5664 230.26 51.5664C231.613 51.5664 232.473 50.7607 232.72 49.5684L232.741 49.4717H235.266L235.255 49.5469C235.051 51.9209 233.128 53.7256 230.249 53.7256ZM241.815 53.7256C238.399 53.7256 236.336 51.459 236.336 47.8389V47.8281C236.336 44.2402 238.431 41.877 241.686 41.877C244.941 41.877 246.96 44.165 246.96 47.6025V48.4619H238.99C239.033 50.46 240.128 51.6416 241.869 51.6416C243.201 51.6416 244.071 50.9326 244.329 50.1699L244.35 50.0947H246.853L246.821 50.2129C246.466 51.9639 244.79 53.7256 241.815 53.7256ZM241.718 43.9717C240.3 43.9717 239.237 44.9277 239.022 46.6787H244.361C244.167 44.874 243.136 43.9717 241.718 43.9717ZM253.08 53.7256C250.094 53.7256 248.386 52.3076 248.149 50.1914L248.139 50.0947H250.77L250.792 50.1914C250.996 51.1689 251.737 51.749 253.091 51.749C254.39 51.749 255.175 51.2227 255.175 50.3848V50.374C255.175 49.6865 254.777 49.2998 253.596 49.0312L251.705 48.6123C249.524 48.1289 248.429 47.0654 248.429 45.3789V45.3682C248.429 43.2842 250.244 41.877 252.994 41.877C255.83 41.877 257.484 43.4346 257.581 45.4004L257.592 45.5186H255.099L255.089 45.4326C254.971 44.5195 254.24 43.8535 252.994 43.8535C251.812 43.8535 251.071 44.4014 251.071 45.2393V45.25C251.071 45.9053 251.512 46.335 252.693 46.6035L254.595 47.0225C256.947 47.5488 257.86 48.4727 257.86 50.127V50.1377C257.86 52.2861 255.873 53.7256 253.08 53.7256Z" fill="#2E2E2E"/>
<path d="M299.192 2.2295C302.392 4.6444 303.017 8.17038 302.999 8.13161C302.966 8.11075 299.754 7.245 296.946 5.14803C294.17 3.02895 292.186 0.0314115 292.155 0.00881695C292.107 -0.00711035 295.994 -0.184904 299.192 2.2295Z" fill="url(#paint20_linear_264_811)"/>
<path d="M308.366 6.92189C308.752 9.87967 306.718 11.3144 306.746 11.3215C306.76 11.2919 304.698 8.38843 304.024 5.60436C303.363 2.79042 304.776 0.893835 304.807 0.89865C304.828 0.85593 307.998 3.92052 308.366 6.92189Z" fill="url(#paint21_linear_264_811)"/>
<path d="M312.811 13.6126C312.603 16.5463 310.343 17.583 310.368 17.5958C310.386 17.5675 308.942 14.3912 308.864 11.5839C308.802 8.75081 310.566 7.16277 310.592 7.1724C310.617 7.13314 313.044 10.6406 312.811 13.6126Z" fill="url(#paint22_linear_264_811)"/>
<path d="M315.863 20.8949C315.11 23.7174 312.702 24.3247 312.724 24.3413C312.744 24.3159 311.918 20.9635 312.386 18.223C312.873 15.4605 314.907 14.2314 314.931 14.2447C314.959 14.2102 316.646 18.0394 315.863 20.8949Z" fill="url(#paint23_linear_264_811)"/>
<path d="M317.518 28.5484C316.268 31.1749 313.793 31.3399 313.812 31.3589C313.836 31.338 313.625 27.9028 314.588 25.3137C315.574 22.7041 317.802 21.8712 317.822 21.8876C317.855 21.8592 318.799 25.8925 317.518 28.5484Z" fill="url(#paint24_linear_264_811)"/>
<path d="M317.778 36.3534C316.082 38.7101 313.618 38.4257 313.633 38.4481C313.661 38.4313 314.062 35.0147 315.472 32.6483C316.908 30.2682 319.249 29.8521 319.265 29.8725C319.3 29.8474 319.51 33.9713 317.778 36.3534Z" fill="url(#paint25_linear_264_811)"/>
<path d="M316.644 44.0892C314.552 46.1097 312.177 45.3846 312.187 45.409C312.218 45.3962 313.231 42.0916 315.037 40.0181C316.874 37.9332 319.251 37.9497 319.263 37.9714C319.302 37.9532 318.777 42.05 316.644 44.0892Z" fill="url(#paint26_linear_264_811)"/>
<path d="M314.113 51.5356C311.674 53.1618 309.466 52.016 309.474 52.0417C309.509 52.0359 311.128 48.938 313.283 47.2152C315.47 45.4836 317.804 45.9323 317.812 45.9551C317.853 45.9439 316.596 49.8975 314.113 51.5356Z" fill="url(#paint27_linear_264_811)"/>
<path d="M310.187 58.473C307.451 59.6531 305.488 58.1189 305.493 58.1464C305.532 58.1456 307.759 55.3542 310.209 54.0313C312.697 52.7077 314.909 53.5699 314.914 53.596C314.96 53.5904 312.972 57.2867 310.187 58.473Z" fill="url(#paint28_linear_264_811)"/>
<path d="M304.867 64.6807C301.883 65.3704 300.246 63.4978 300.246 63.5228C300.29 63.5285 303.118 61.1369 305.818 60.2585C308.558 59.3839 310.567 60.6407 310.57 60.6654C310.619 60.6691 307.902 63.9919 304.867 64.6807Z" fill="url(#paint29_linear_264_811)"/>
<path d="M300.812 12.9975C303.247 13.5967 305.29 12.375 305.291 12.351C305.334 12.3515 303.13 9.51902 300.451 9.06726C297.815 8.61907 296.151 10.4502 296.149 10.4279C296.186 10.4265 298.412 12.4 300.812 12.9975Z" fill="url(#paint30_linear_264_811)"/>
<path d="M304.257 18.1816C306.509 19.1879 308.746 18.3631 308.748 18.3392C308.788 18.3472 307.195 15.2125 304.699 14.315C302.244 13.4269 300.263 14.9139 300.264 14.89C300.296 14.895 302.036 17.1811 304.257 18.1816Z" fill="url(#paint31_linear_264_811)"/>
<path d="M306.621 23.8241C308.639 25.2058 310.989 24.8007 310.996 24.7773C311.033 24.7911 310.053 21.453 307.789 20.1419C305.564 18.8469 303.344 19.9441 303.35 19.9207C303.379 19.9305 304.63 22.4532 306.621 23.8241Z" fill="url(#paint32_linear_264_811)"/>
<path d="M307.903 29.7543C309.639 31.4693 312.024 31.496 312.034 31.4749C312.067 31.4952 311.703 28.0474 309.722 26.3649C307.774 24.701 305.397 25.3795 305.406 25.3571C305.432 25.3721 306.192 28.0546 307.903 29.7543Z" fill="url(#paint33_linear_264_811)"/>
<path d="M308.106 35.8019C309.509 37.8021 311.851 38.2597 311.864 38.2409C311.893 38.2644 312.146 34.8094 310.498 32.8023C308.881 30.8212 306.421 31.0577 306.434 31.0367C306.455 31.0537 306.723 33.8198 308.106 35.8019Z" fill="url(#paint34_linear_264_811)"/>
<path d="M307.226 41.7958C308.245 44.0241 310.466 44.9016 310.483 44.8844C310.509 44.9121 311.38 41.5428 310.115 39.2699C308.876 37.0266 306.415 36.8153 306.431 36.7971C306.449 36.8169 306.22 39.5892 307.226 41.7958Z" fill="url(#paint35_linear_264_811)"/>
<path d="M305.265 47.5655C305.855 49.9576 307.873 51.2274 307.894 51.215C307.917 51.2467 309.409 48.0632 308.576 45.5866C307.765 43.1445 305.379 42.492 305.399 42.4759C305.415 42.4978 304.689 45.1974 305.265 47.5655Z" fill="url(#paint36_linear_264_811)"/>
<path d="M302.224 52.9411C302.33 55.4251 304.069 57.0528 304.095 57.0414C304.114 57.0751 306.23 54.1742 305.879 51.5686C305.547 48.9982 303.316 47.9231 303.338 47.9109C303.35 47.9363 302.126 50.4812 302.224 52.9411Z" fill="url(#paint37_linear_264_811)"/>
<path d="M298.101 57.7507C297.677 60.2481 299.058 62.18 299.086 62.1726C299.101 62.2109 301.845 59.6923 302.024 57.0335C302.219 54.4148 300.222 52.948 300.248 52.9389C300.255 52.9664 298.531 55.2801 298.101 57.7507Z" fill="url(#paint38_linear_264_811)"/>
<path d="M292.257 68C292.188 67.8665 292.12 67.7323 292.052 67.599C315.116 55.954 319.055 26.6214 303.648 8.96959C303.671 8.94897 303.695 8.92835 303.719 8.90786C303.742 8.88798 303.766 8.86785 303.788 8.84773C319.339 26.5125 315.555 56.1212 292.257 68Z" fill="url(#paint39_linear_264_811)"/>
<defs>
<linearGradient id="paint0_linear_264_811" x1="28.7783" y1="0" x2="28.7783" y2="8.13193" gradientUnits="userSpaceOnUse">
<stop stop-color="#FFC227"/>
<stop offset="1" stop-color="#FF9900"/>
</linearGradient>
<linearGradient id="paint1_linear_264_811" x1="20.6128" y1="0.898209" x2="20.6128" y2="11.3215" gradientUnits="userSpaceOnUse">
<stop stop-color="#FFC227"/>
<stop offset="1" stop-color="#FF9900"/>
</linearGradient>
<linearGradient id="paint2_linear_264_811" x1="16.1136" y1="7.17208" x2="16.1136" y2="17.5958" gradientUnits="userSpaceOnUse">
<stop stop-color="#FFC227"/>
<stop offset="1" stop-color="#FF9900"/>
</linearGradient>
<linearGradient id="paint3_linear_264_811" x1="12.9538" y1="14.2445" x2="12.9538" y2="24.3413" gradientUnits="userSpaceOnUse">
<stop stop-color="#FFC227"/>
<stop offset="1" stop-color="#FF9900"/>
</linearGradient>
<linearGradient id="paint4_linear_264_811" x1="11.1954" y1="21.8874" x2="11.1954" y2="31.3589" gradientUnits="userSpaceOnUse">
<stop stop-color="#FFC227"/>
<stop offset="1" stop-color="#FF9900"/>
</linearGradient>
<linearGradient id="paint5_linear_264_811" x1="10.7523" y1="29.8718" x2="10.7523" y2="38.4488" gradientUnits="userSpaceOnUse">
<stop stop-color="#FFC227"/>
<stop offset="1" stop-color="#FF9900"/>
</linearGradient>
<linearGradient id="paint6_linear_264_811" x1="11.4554" y1="37.9671" x2="11.4554" y2="45.5161" gradientUnits="userSpaceOnUse">
<stop stop-color="#FFC227"/>
<stop offset="1" stop-color="#FF9900"/>
</linearGradient>
<linearGradient id="paint7_linear_264_811" x1="13.4428" y1="45.8864" x2="13.4428" y2="52.4099" gradientUnits="userSpaceOnUse">
<stop stop-color="#FFC227"/>
<stop offset="1" stop-color="#FF9900"/>
</linearGradient>
<linearGradient id="paint8_linear_264_811" x1="16.7251" y1="53.296" x2="16.7251" y2="58.9198" gradientUnits="userSpaceOnUse">
<stop stop-color="#FFC227"/>
<stop offset="1" stop-color="#FF9900"/>
</linearGradient>
<linearGradient id="paint9_linear_264_811" x1="21.303" y1="59.9494" x2="21.303" y2="64.8333" gradientUnits="userSpaceOnUse">
<stop stop-color="#FFC227"/>
<stop offset="1" stop-color="#FF9900"/>
</linearGradient>
<linearGradient id="paint10_linear_264_811" x1="25.7775" y1="8.99659" x2="25.7775" y2="13.1627" gradientUnits="userSpaceOnUse">
<stop stop-color="#FFC227"/>
<stop offset="1" stop-color="#FF9900"/>
</linearGradient>
<linearGradient id="paint11_linear_264_811" x1="22.1639" y1="14.0319" x2="22.1639" y2="18.68" gradientUnits="userSpaceOnUse">
<stop stop-color="#FFC227"/>
<stop offset="1" stop-color="#FF9900"/>
</linearGradient>
<linearGradient id="paint12_linear_264_811" x1="19.6188" y1="19.509" x2="19.6188" y2="24.8503" gradientUnits="userSpaceOnUse">
<stop stop-color="#FFC227"/>
<stop offset="1" stop-color="#FF9900"/>
</linearGradient>
<linearGradient id="paint13_linear_264_811" x1="18.1412" y1="25.2388" x2="18.1412" y2="31.4782" gradientUnits="userSpaceOnUse">
<stop stop-color="#FFC227"/>
<stop offset="1" stop-color="#FF9900"/>
</linearGradient>
<linearGradient id="paint14_linear_264_811" x1="17.7186" y1="31.0367" x2="17.7186" y2="38.2414" gradientUnits="userSpaceOnUse">
<stop stop-color="#FFC227"/>
<stop offset="1" stop-color="#FF9900"/>
</linearGradient>
<linearGradient id="paint15_linear_264_811" x1="18.2466" y1="36.7971" x2="18.2466" y2="44.8847" gradientUnits="userSpaceOnUse">
<stop stop-color="#FFC227"/>
<stop offset="1" stop-color="#FF9900"/>
</linearGradient>
<linearGradient id="paint16_linear_264_811" x1="19.845" y1="42.4759" x2="19.845" y2="51.2152" gradientUnits="userSpaceOnUse">
<stop stop-color="#FFC227"/>
<stop offset="1" stop-color="#FF9900"/>
</linearGradient>
<linearGradient id="paint17_linear_264_811" x1="22.5822" y1="47.9109" x2="22.5822" y2="57.0417" gradientUnits="userSpaceOnUse">
<stop stop-color="#FFC227"/>
<stop offset="1" stop-color="#FF9900"/>
</linearGradient>
<linearGradient id="paint18_linear_264_811" x1="26.4373" y1="52.939" x2="26.4373" y2="62.173" gradientUnits="userSpaceOnUse">
<stop stop-color="#FFC227"/>
<stop offset="1" stop-color="#FF9900"/>
</linearGradient>
<linearGradient id="paint19_linear_264_811" x1="23.9795" y1="8.84772" x2="23.9795" y2="68" gradientUnits="userSpaceOnUse">
<stop stop-color="#FFC227"/>
<stop offset="1" stop-color="#FF9900"/>
</linearGradient>
<linearGradient id="paint20_linear_264_811" x1="297.577" y1="0" x2="297.577" y2="8.13193" gradientUnits="userSpaceOnUse">
<stop stop-color="#FFC227"/>
<stop offset="1" stop-color="#FF9900"/>
</linearGradient>
<linearGradient id="paint21_linear_264_811" x1="306.131" y1="0.898209" x2="306.131" y2="11.3215" gradientUnits="userSpaceOnUse">
<stop stop-color="#FFC227"/>
<stop offset="1" stop-color="#FF9900"/>
</linearGradient>
<linearGradient id="paint22_linear_264_811" x1="310.845" y1="7.17207" x2="310.845" y2="17.5958" gradientUnits="userSpaceOnUse">
<stop stop-color="#FFC227"/>
<stop offset="1" stop-color="#FF9900"/>
</linearGradient>
<linearGradient id="paint23_linear_264_811" x1="314.156" y1="14.2445" x2="314.156" y2="24.3413" gradientUnits="userSpaceOnUse">
<stop stop-color="#FFC227"/>
<stop offset="1" stop-color="#FF9900"/>
</linearGradient>
<linearGradient id="paint24_linear_264_811" x1="315.998" y1="21.8874" x2="315.998" y2="31.3589" gradientUnits="userSpaceOnUse">
<stop stop-color="#FFC227"/>
<stop offset="1" stop-color="#FF9900"/>
</linearGradient>
<linearGradient id="paint25_linear_264_811" x1="316.462" y1="29.8718" x2="316.462" y2="38.4488" gradientUnits="userSpaceOnUse">
<stop stop-color="#FFC227"/>
<stop offset="1" stop-color="#FF9900"/>
</linearGradient>
<linearGradient id="paint26_linear_264_811" x1="315.726" y1="37.9671" x2="315.726" y2="45.5161" gradientUnits="userSpaceOnUse">
<stop stop-color="#FFC227"/>
<stop offset="1" stop-color="#FF9900"/>
</linearGradient>
<linearGradient id="paint27_linear_264_811" x1="313.643" y1="45.8864" x2="313.643" y2="52.4099" gradientUnits="userSpaceOnUse">
<stop stop-color="#FFC227"/>
<stop offset="1" stop-color="#FF9900"/>
</linearGradient>
<linearGradient id="paint28_linear_264_811" x1="310.204" y1="53.296" x2="310.204" y2="58.9198" gradientUnits="userSpaceOnUse">
<stop stop-color="#FFC227"/>
<stop offset="1" stop-color="#FF9900"/>
</linearGradient>
<linearGradient id="paint29_linear_264_811" x1="305.409" y1="59.9494" x2="305.409" y2="64.8333" gradientUnits="userSpaceOnUse">
<stop stop-color="#FFC227"/>
<stop offset="1" stop-color="#FF9900"/>
</linearGradient>
<linearGradient id="paint30_linear_264_811" x1="300.72" y1="8.99659" x2="300.72" y2="13.1627" gradientUnits="userSpaceOnUse">
<stop stop-color="#FFC227"/>
<stop offset="1" stop-color="#FF9900"/>
</linearGradient>
<linearGradient id="paint31_linear_264_811" x1="304.506" y1="14.0319" x2="304.506" y2="18.68" gradientUnits="userSpaceOnUse">
<stop stop-color="#FFC227"/>
<stop offset="1" stop-color="#FF9900"/>
</linearGradient>
<linearGradient id="paint32_linear_264_811" x1="307.173" y1="19.509" x2="307.173" y2="24.8503" gradientUnits="userSpaceOnUse">
<stop stop-color="#FFC227"/>
<stop offset="1" stop-color="#FF9900"/>
</linearGradient>
<linearGradient id="paint33_linear_264_811" x1="308.721" y1="25.2388" x2="308.721" y2="31.4782" gradientUnits="userSpaceOnUse">
<stop stop-color="#FFC227"/>
<stop offset="1" stop-color="#FF9900"/>
</linearGradient>
<linearGradient id="paint34_linear_264_811" x1="309.164" y1="31.0367" x2="309.164" y2="38.2414" gradientUnits="userSpaceOnUse">
<stop stop-color="#FFC227"/>
<stop offset="1" stop-color="#FF9900"/>
</linearGradient>
<linearGradient id="paint35_linear_264_811" x1="308.61" y1="36.7971" x2="308.61" y2="44.8847" gradientUnits="userSpaceOnUse">
<stop stop-color="#FFC227"/>
<stop offset="1" stop-color="#FF9900"/>
</linearGradient>
<linearGradient id="paint36_linear_264_811" x1="306.936" y1="42.4759" x2="306.936" y2="51.2152" gradientUnits="userSpaceOnUse">
<stop stop-color="#FFC227"/>
<stop offset="1" stop-color="#FF9900"/>
</linearGradient>
<linearGradient id="paint37_linear_264_811" x1="304.068" y1="47.9109" x2="304.068" y2="57.0417" gradientUnits="userSpaceOnUse">
<stop stop-color="#FFC227"/>
<stop offset="1" stop-color="#FF9900"/>
</linearGradient>
<linearGradient id="paint38_linear_264_811" x1="300.029" y1="52.9389" x2="300.029" y2="62.173" gradientUnits="userSpaceOnUse">
<stop stop-color="#FFC227"/>
<stop offset="1" stop-color="#FF9900"/>
</linearGradient>
<linearGradient id="paint39_linear_264_811" x1="302.604" y1="8.84773" x2="302.604" y2="68" gradientUnits="userSpaceOnUse">
<stop stop-color="#FFC227"/>
<stop offset="1" stop-color="#FF9900"/>
</linearGradient>
</defs>
</svg>
