<svg width="374" height="76" viewBox="0 0 374 76" fill="none" xmlns="http://www.w3.org/2000/svg">
<path d="M45.8983 2.4918C42.4913 5.1908 41.8264 9.1316 41.8451 9.08827C41.8805 9.06495 45.3004 8.09735 48.2891 5.75368C51.2445 3.3853 53.3565 0.035107 53.3903 0.00985424C53.4412 -0.00794686 49.3029 -0.206658 45.8983 2.4918Z" fill="url(#paint0_linear_68_811)"/>
<path d="M36.132 7.73625C35.7208 11.042 37.8864 12.6455 37.8558 12.6535C37.8409 12.6204 40.0367 9.37533 40.7539 6.26372C41.4583 3.11873 39.9534 0.999018 39.9206 1.0044C39.8979 0.956654 36.523 4.38178 36.132 7.73625Z" fill="url(#paint1_linear_68_811)"/>
<path d="M31.3985 15.2143C31.6206 18.4932 34.0266 19.6519 33.9993 19.6661C33.9805 19.6345 35.5177 16.0845 35.6004 12.947C35.6672 9.78058 33.7894 8.00571 33.7611 8.01648C33.7349 7.9726 31.151 11.8927 31.3985 15.2143Z" fill="url(#paint2_linear_68_811)"/>
<path d="M28.1509 23.3532C28.9524 26.5078 31.5157 27.1866 31.4925 27.205C31.4711 27.1766 32.351 23.4298 31.852 20.3669C31.3332 17.2795 29.1683 15.9058 29.1431 15.9207C29.1135 15.882 27.3167 20.1617 28.1509 23.3532Z" fill="url(#paint3_linear_68_811)"/>
<path d="M26.3879 31.9071C27.7182 34.8425 30.3532 35.027 30.3337 35.0483C30.3077 35.0248 30.5329 31.1855 29.507 28.2918C28.4578 25.3752 26.0859 24.4443 26.0648 24.4627C26.0293 24.4309 25.0242 28.9387 26.3879 31.9071Z" fill="url(#paint4_linear_68_811)"/>
<path d="M26.1108 40.6304C27.9171 43.2643 30.5399 42.9465 30.5242 42.9715C30.4945 42.9527 30.0676 39.1341 28.5661 36.4894C27.0373 33.8293 24.545 33.3642 24.5279 33.387C24.4905 33.359 24.2675 37.968 26.1108 40.6304Z" fill="url(#paint5_linear_68_811)"/>
<path d="M27.3189 49.2764C29.5463 51.5346 32.0749 50.7242 32.0637 50.7515C32.0303 50.7372 30.952 47.0438 29.0294 44.7263C27.0736 42.3962 24.5437 42.4147 24.5309 42.4388C24.4892 42.4185 25.048 46.9973 27.3189 49.2764Z" fill="url(#paint6_linear_68_811)"/>
<path d="M30.013 57.5985C32.6102 59.416 34.9602 58.1354 34.9524 58.1641C34.9146 58.1577 33.1908 54.6953 30.8974 52.7699C28.5684 50.8345 26.0838 51.336 26.0753 51.3615C26.0315 51.3489 27.3699 55.7676 30.013 57.5985Z" fill="url(#paint7_linear_68_811)"/>
<path d="M34.1919 65.3524C37.1052 66.6714 39.1949 64.9567 39.1895 64.9874C39.1486 64.9865 36.7777 61.8667 34.1685 60.3881C31.5201 58.9088 29.1656 59.8725 29.1595 59.9017C29.1107 59.8954 31.2272 64.0266 34.1919 65.3524Z" fill="url(#paint8_linear_68_811)"/>
<path d="M39.8565 72.2903C43.0334 73.0612 44.7766 70.9682 44.7763 70.9962C44.7295 71.0026 41.7188 68.3297 38.8446 67.3478C35.9279 66.3704 33.788 67.7751 33.7849 67.8027C33.7329 67.8068 36.6253 71.5205 39.8565 72.2903Z" fill="url(#paint9_linear_68_811)"/>
<path d="M44.1736 14.5268C41.5813 15.1964 39.406 13.831 39.4055 13.8042C39.3591 13.8048 41.7054 10.6391 44.5582 10.1342C47.3645 9.63324 49.1354 11.6798 49.1376 11.6548C49.0986 11.6533 46.7288 13.859 44.1736 14.5268Z" fill="url(#paint10_linear_68_811)"/>
<path d="M40.5061 20.3206C38.1088 21.4452 35.7271 20.5234 35.7249 20.4967C35.6824 20.5056 37.3783 17.0021 40.0359 15.9991C42.6493 15.0065 44.7581 16.6685 44.757 16.6417C44.723 16.6474 42.8709 19.2023 40.5061 20.3206Z" fill="url(#paint11_linear_68_811)"/>
<path d="M37.9896 26.627C35.841 28.1713 33.3398 27.7185 33.3321 27.6923C33.2927 27.7077 34.3362 23.977 36.7461 22.5116C39.115 21.0642 41.478 22.2906 41.4723 22.2643C41.4406 22.2754 40.1098 25.0948 37.9896 26.627Z" fill="url(#paint12_linear_68_811)"/>
<path d="M36.6236 33.2548C34.7755 35.1715 32.237 35.2013 32.2262 35.1777C32.1914 35.2005 32.5786 31.3471 34.6877 29.4666C36.7616 27.6069 39.2919 28.3653 39.2826 28.3402C39.2551 28.357 38.4458 31.3551 36.6236 33.2548Z" fill="url(#paint13_linear_68_811)"/>
<path d="M36.4088 40.0138C34.9147 42.2493 32.4221 42.7607 32.4078 42.7397C32.3765 42.766 32.1079 38.9045 33.862 36.6613C35.5838 34.4472 38.2024 34.7114 38.189 34.688C38.1656 34.707 37.881 37.7985 36.4088 40.0138Z" fill="url(#paint14_linear_68_811)"/>
<path d="M37.3453 46.7128C36.2598 49.2033 33.8959 50.184 33.8777 50.1648C33.85 50.1957 32.9221 46.43 34.2691 43.8897C35.5883 41.3825 38.2085 41.1464 38.1919 41.126C38.172 41.1482 38.4155 44.2466 37.3453 46.7128Z" fill="url(#paint15_linear_68_811)"/>
<path d="M39.4322 53.1615C38.8046 55.835 36.6564 57.2542 36.6341 57.2403C36.6095 57.2758 35.0204 53.7177 35.9078 50.9497C36.7711 48.2204 39.3118 47.4911 39.2897 47.4731C39.273 47.4976 40.0461 50.5148 39.4322 53.1615Z" fill="url(#paint16_linear_68_811)"/>
<path d="M42.6706 59.1693C42.5574 61.9456 40.7059 63.7648 40.6786 63.7521C40.6585 63.7898 38.4049 60.5476 38.7792 57.6354C39.1331 54.7627 41.5082 53.561 41.4839 53.5474C41.4721 53.5758 42.774 56.4201 42.6706 59.1693Z" fill="url(#paint17_linear_68_811)"/>
<path d="M47.0596 64.5449C47.5112 67.336 46.0412 69.4952 46.0103 69.4869C45.9946 69.5297 43.0737 66.7148 42.8829 63.7433C42.6755 60.8164 44.8018 59.1771 44.7738 59.167C44.7659 59.1976 46.6016 61.7836 47.0596 64.5449Z" fill="url(#paint18_linear_68_811)"/>
<path d="M53.2819 76C53.3547 75.8509 53.4276 75.7009 53.5003 75.5518C28.9457 62.5369 24.752 29.7533 41.1549 10.0249C41.1297 10.0018 41.1043 9.97878 41.0791 9.95587C41.0544 9.93366 41.0296 9.91116 41.0052 9.88867C24.4502 29.6316 28.4783 62.7237 53.2819 76Z" fill="url(#paint19_linear_68_811)"/>
<path d="M132.99 25.1992C129.595 25.1992 127.437 22.8086 127.437 19.0068V18.9985C127.437 15.1968 129.595 12.8228 132.99 12.8228C135.63 12.8228 137.614 14.4497 137.987 16.8154L138.004 16.8901H136.161L136.112 16.7241C135.713 15.3213 134.601 14.4663 132.99 14.4663C130.766 14.4663 129.338 16.2261 129.338 18.9985V19.0068C129.338 21.7793 130.774 23.5557 132.99 23.5557C134.584 23.5557 135.688 22.7256 136.136 21.2065L136.161 21.1318H138.004L137.996 21.2148C137.622 23.5972 135.638 25.1992 132.99 25.1992ZM139.616 25V13.022H141.475V23.3979H147.054V25H139.616ZM148.574 25V13.022H156.178V14.624H150.434V18.1187H155.871V19.6792H150.434V23.3979H156.178V25H148.574ZM157.126 25L161.484 13.022H163.492L167.842 25H165.891L164.796 21.7627H160.18L159.076 25H157.126ZM162.471 15.0059L160.678 20.2686H164.289L162.505 15.0059H162.471ZM169.097 25V13.022H170.815L176.974 21.8789H177.024V13.022H178.867V25H177.157L170.99 16.1265H170.94V25H169.097ZM181.01 25V13.022H188.614V14.624H182.87V18.1187H188.307V19.6792H182.87V23.3979H188.614V25H181.01ZM190.45 25V13.022H194.675C198.228 13.022 200.344 15.2051 200.344 18.9736V18.9902C200.344 22.7754 198.244 25 194.675 25H190.45ZM192.309 23.3896H194.501C197.041 23.3896 198.443 21.8374 198.443 19.0068V18.9902C198.443 16.1763 197.024 14.624 194.501 14.624H192.309V23.3896ZM210.607 25.1992C207.154 25.1992 204.996 22.8252 204.996 19.0151V18.9985C204.996 15.1968 207.162 12.8228 210.607 12.8228C214.06 12.8228 216.219 15.2051 216.219 18.9985V19.0151C216.219 22.8169 214.069 25.1992 210.607 25.1992ZM210.607 23.5557C212.907 23.5557 214.318 21.7793 214.318 19.0151V18.9985C214.318 16.2178 212.882 14.4663 210.607 14.4663C208.341 14.4663 206.889 16.2095 206.889 18.9985V19.0151C206.889 21.8042 208.333 23.5557 210.607 23.5557ZM220.885 25L216.619 13.022H218.619L221.89 22.9331H221.931L225.202 13.022H227.202L222.936 25H220.885ZM228.457 25V13.022H236.061V14.624H230.317V18.1187H235.754V19.6792H230.317V23.3979H236.061V25H228.457ZM237.897 25V13.022H242.545C244.994 13.022 246.538 14.4414 246.538 16.6909V16.7075C246.538 18.3345 245.65 19.6294 244.214 20.1191L246.895 25H244.753L242.313 20.4014H239.756V25H237.897ZM239.756 18.874H242.363C243.799 18.874 244.62 18.0854 244.62 16.7241V16.7075C244.62 15.3794 243.741 14.5825 242.313 14.5825H239.756V18.874Z" fill="#2E2E2E" fill-opacity="0.7"/>
<path d="M79.0448 61.3418C74.9433 61.3418 72.1542 58.8945 71.8944 55.627L71.8808 55.4492H75.1893L75.203 55.5449C75.4901 57.1992 76.994 58.4707 79.0722 58.4707C81.4237 58.4707 83.0507 56.8574 83.0507 54.5469V54.5195C83.0507 52.2637 81.3964 50.6504 79.0858 50.6504C77.9647 50.6504 76.994 50.9922 76.2421 51.6211C75.8729 51.9219 75.5448 52.3047 75.3124 52.7422H72.2362L73.1796 41.2715H85.2929V44.1562H75.996L75.4491 50.1035H75.5175C76.3788 48.7773 78.0058 47.998 79.9882 47.998C83.7479 47.998 86.455 50.7188 86.455 54.4648V54.4922C86.455 58.5527 83.4061 61.3418 79.0448 61.3418ZM96.4188 61.3418C91.5789 61.3418 88.6668 57.418 88.6668 51.1426V51.1152C88.6668 44.8398 91.5789 40.9297 96.4188 40.9297C101.245 40.9297 104.171 44.8398 104.171 51.1152V51.1426C104.171 57.418 101.245 61.3418 96.4188 61.3418ZM96.4188 58.457C99.0711 58.457 100.616 55.6953 100.616 51.1426V51.1152C100.616 46.5625 99.0711 43.8281 96.4188 43.8281C93.7528 43.8281 92.2215 46.5625 92.2215 51.1152V51.1426C92.2215 55.6953 93.7528 58.457 96.4188 58.457ZM107.053 54.5059V51.4707H112.781V46.0703H115.803V51.4707H121.545V54.5059H115.803V59.9062H112.781V54.5059H107.053ZM130.699 61V41.2715H134.773L140.816 56.3379H140.912L146.955 41.2715H151.029V61H147.857V46.9727H147.748L142.06 61H139.668L133.98 46.9727H133.884V61H130.699ZM156.085 44.4297C155.018 44.4297 154.184 43.582 154.184 42.5703C154.184 41.5312 155.018 40.6973 156.085 40.6973C157.151 40.6973 157.971 41.5312 157.971 42.5703C157.971 43.582 157.151 44.4297 156.085 44.4297ZM154.376 61V46.5078H157.78V61H154.376ZM160.88 61V41.2715H164.285V61H160.88ZM167.385 61V41.2715H170.79V61H167.385ZM175.599 44.4297C174.533 44.4297 173.699 43.582 173.699 42.5703C173.699 41.5312 174.533 40.6973 175.599 40.6973C176.666 40.6973 177.486 41.5312 177.486 42.5703C177.486 43.582 176.666 44.4297 175.599 44.4297ZM173.89 61V46.5078H177.294V61H173.89ZM186.711 61.2871C182.446 61.2871 179.698 58.4434 179.698 53.7539V53.7266C179.698 49.0781 182.487 46.207 186.698 46.207C190.922 46.207 193.725 49.0508 193.725 53.7266V53.7539C193.725 58.457 190.963 61.2871 186.711 61.2871ZM186.725 58.5391C188.872 58.5391 190.252 56.7891 190.252 53.7539V53.7266C190.252 50.7051 188.858 48.9688 186.698 48.9688C184.579 48.9688 183.17 50.7188 183.17 53.7266V53.7539C183.17 56.8027 184.551 58.5391 186.725 58.5391ZM196.019 61V46.5078H199.423V48.7773H199.492C200.244 47.2188 201.72 46.207 203.921 46.207C207.107 46.207 208.925 48.2578 208.925 51.6211V61H205.521V52.3047C205.521 50.2402 204.564 49.0781 202.622 49.0781C200.667 49.0781 199.423 50.5 199.423 52.5918V61H196.019ZM217.82 61V41.2715H225.421C229.413 41.2715 232.134 43.9102 232.134 47.8613V47.8887C232.134 51.8262 229.413 54.4785 225.421 54.4785H221.347V61H217.82ZM224.546 44.1562H221.347V51.6348H224.546C227.076 51.6348 228.552 50.2676 228.552 47.9023V47.875C228.552 45.5098 227.076 44.1562 224.546 44.1562ZM234.578 61V41.2715H237.983V48.9414H238.065C238.817 47.2051 240.362 46.207 242.535 46.207C245.653 46.207 247.649 48.4766 247.649 51.9766V61H244.244V52.6465C244.244 50.418 243.123 49.0781 241.168 49.0781C239.241 49.0781 237.983 50.541 237.983 52.6465V61H234.578ZM256.915 61.2871C252.65 61.2871 249.902 58.4434 249.902 53.7539V53.7266C249.902 49.0781 252.691 46.207 256.902 46.207C261.126 46.207 263.929 49.0508 263.929 53.7266V53.7539C263.929 58.457 261.167 61.2871 256.915 61.2871ZM256.929 58.5391C259.075 58.5391 260.456 56.7891 260.456 53.7539V53.7266C260.456 50.7051 259.062 48.9688 256.902 48.9688C254.782 48.9688 253.374 50.7188 253.374 53.7266V53.7539C253.374 56.8027 254.755 58.5391 256.929 58.5391ZM271.61 61.2871C268.574 61.2871 267.139 60.0566 267.139 57.0762V49.1328H265.088V46.5078H267.139V42.8301H270.598V46.5078H273.291V49.1328H270.598V56.7891C270.598 58.2109 271.227 58.6621 272.471 58.6621C272.799 58.6621 273.059 58.6211 273.291 58.6074V61.1641C272.895 61.2188 272.293 61.2871 271.61 61.2871ZM281.874 61.2871C277.609 61.2871 274.86 58.4434 274.86 53.7539V53.7266C274.86 49.0781 277.65 46.207 281.86 46.207C286.085 46.207 288.888 49.0508 288.888 53.7266V53.7539C288.888 58.457 286.126 61.2871 281.874 61.2871ZM281.888 58.5391C284.034 58.5391 285.415 56.7891 285.415 53.7539V53.7266C285.415 50.7051 284.021 48.9688 281.86 48.9688C279.741 48.9688 278.333 50.7188 278.333 53.7266V53.7539C278.333 56.8027 279.714 58.5391 281.888 58.5391ZM296.842 61.2871C293.041 61.2871 290.867 59.4824 290.567 56.7891L290.553 56.666H293.902L293.93 56.7891C294.19 58.0332 295.133 58.7715 296.856 58.7715C298.51 58.7715 299.508 58.1016 299.508 57.0352V57.0215C299.508 56.1465 299.002 55.6543 297.498 55.3125L295.092 54.7793C292.317 54.1641 290.922 52.8105 290.922 50.6641V50.6504C290.922 47.998 293.233 46.207 296.733 46.207C300.342 46.207 302.447 48.1895 302.57 50.6914L302.584 50.8418H299.412L299.399 50.7324C299.248 49.5703 298.318 48.7227 296.733 48.7227C295.229 48.7227 294.285 49.4199 294.285 50.4863V50.5C294.285 51.334 294.846 51.8809 296.35 52.2227L298.77 52.7559C301.764 53.4258 302.926 54.6016 302.926 56.707V56.7207C302.926 59.4551 300.397 61.2871 296.842 61.2871Z" fill="#2E2E2E"/>
<path d="M327.464 2.4918C331.033 5.1908 331.73 9.13161 331.71 9.08827C331.673 9.06495 328.09 8.09735 324.959 5.75368C321.863 3.3853 319.65 0.035107 319.615 0.00985424C319.561 -0.00794686 323.897 -0.206658 327.464 2.4918Z" fill="url(#paint20_linear_68_811)"/>
<path d="M337.696 7.73625C338.127 11.042 335.858 12.6455 335.89 12.6535C335.906 12.6204 333.605 9.37533 332.854 6.26372C332.116 3.11873 333.692 0.999018 333.727 1.0044C333.75 0.956654 337.286 4.38178 337.696 7.73625Z" fill="url(#paint21_linear_68_811)"/>
<path d="M342.655 15.2143C342.423 18.4932 339.902 19.6519 339.93 19.6661C339.95 19.6345 338.339 16.0845 338.253 12.947C338.183 9.78058 340.15 8.00571 340.18 8.01648C340.207 7.9726 342.914 11.8927 342.655 15.2143Z" fill="url(#paint22_linear_68_811)"/>
<path d="M346.058 23.3532C345.218 26.5078 342.533 27.1866 342.557 27.2051C342.579 27.1766 341.658 23.4298 342.18 20.3669C342.724 17.2795 344.992 15.9058 345.018 15.9207C345.049 15.882 346.932 20.1617 346.058 23.3532Z" fill="url(#paint23_linear_68_811)"/>
<path d="M347.905 31.9071C346.511 34.8425 343.75 35.027 343.771 35.0483C343.798 35.0248 343.562 31.1855 344.637 28.2918C345.736 25.3752 348.221 24.4443 348.243 24.4627C348.28 24.4309 349.333 28.9387 347.905 31.9071Z" fill="url(#paint24_linear_68_811)"/>
<path d="M348.195 40.6304C346.303 43.2643 343.555 42.9465 343.571 42.9715C343.602 42.9527 344.05 39.1341 345.623 36.4894C347.225 33.8293 349.836 33.3642 349.854 33.387C349.893 33.359 350.126 37.968 348.195 40.6304Z" fill="url(#paint25_linear_68_811)"/>
<path d="M346.929 49.2764C344.595 51.5346 341.946 50.7242 341.958 50.7515C341.993 50.7372 343.123 47.0438 345.137 44.7263C347.186 42.3962 349.837 42.4147 349.85 42.4388C349.894 42.4185 349.308 46.9973 346.929 49.2764Z" fill="url(#paint26_linear_68_811)"/>
<path d="M344.107 57.5985C341.386 59.416 338.924 58.1354 338.932 58.1641C338.971 58.1577 340.777 54.6953 343.18 52.7699C345.62 50.8345 348.223 51.336 348.232 51.3615C348.278 51.3489 346.876 55.7676 344.107 57.5985Z" fill="url(#paint27_linear_68_811)"/>
<path d="M339.728 65.3524C336.676 66.6714 334.487 64.9567 334.492 64.9874C334.535 64.9865 337.019 61.8667 339.753 60.3881C342.527 58.9088 344.994 59.8725 345 59.9017C345.052 59.8954 342.834 64.0266 339.728 65.3524Z" fill="url(#paint28_linear_68_811)"/>
<path d="M333.794 72.2903C330.466 73.0612 328.639 70.9682 328.64 70.9962C328.689 71.0026 331.843 68.3297 334.854 67.3478C337.91 66.3704 340.152 67.7751 340.155 67.8027C340.209 67.8068 337.179 71.5205 333.794 72.2903Z" fill="url(#paint29_linear_68_811)"/>
<path d="M329.271 14.5268C331.987 15.1964 334.266 13.831 334.266 13.8042C334.315 13.8048 331.857 10.6391 328.868 10.1342C325.928 9.63324 324.073 11.6798 324.07 11.6548C324.111 11.6533 326.594 13.859 329.271 14.5268Z" fill="url(#paint30_linear_68_811)"/>
<path d="M333.113 20.3206C335.625 21.4452 338.12 20.5234 338.122 20.4967C338.167 20.5056 336.39 17.0021 333.606 15.9991C330.868 15.0065 328.658 16.6685 328.66 16.6417C328.695 16.6474 330.636 19.2023 333.113 20.3206Z" fill="url(#paint31_linear_68_811)"/>
<path d="M335.75 26.627C338.001 28.1713 340.621 27.7185 340.629 27.6923C340.671 27.7077 339.577 23.977 337.053 22.5116C334.571 21.0642 332.095 22.2906 332.101 22.2643C332.134 22.2754 333.529 25.0948 335.75 26.627Z" fill="url(#paint32_linear_68_811)"/>
<path d="M337.181 33.2548C339.117 35.1715 341.777 35.2013 341.788 35.1777C341.824 35.2005 341.419 31.3471 339.209 29.4666C337.036 27.6069 334.385 28.3653 334.395 28.3402C334.424 28.357 335.272 31.3551 337.181 33.2548Z" fill="url(#paint33_linear_68_811)"/>
<path d="M337.406 40.0138C338.971 42.2493 341.583 42.7607 341.598 42.7397C341.631 42.766 341.912 38.9045 340.074 36.6613C338.27 34.4472 335.527 34.7114 335.541 34.688C335.565 34.707 335.864 37.7985 337.406 40.0138Z" fill="url(#paint34_linear_68_811)"/>
<path d="M336.425 46.7128C337.562 49.2033 340.039 50.184 340.058 50.1648C340.087 50.1957 341.059 46.43 339.648 43.8897C338.266 41.3825 335.521 41.1464 335.538 41.126C335.559 41.1482 335.304 44.2466 336.425 46.7128Z" fill="url(#paint35_linear_68_811)"/>
<path d="M334.238 53.1615C334.896 55.835 337.146 57.2542 337.169 57.2403C337.195 57.2758 338.86 53.7177 337.93 50.9497C337.026 48.2204 334.364 47.4911 334.387 47.4731C334.405 47.4976 333.595 50.5148 334.238 53.1615Z" fill="url(#paint36_linear_68_811)"/>
<path d="M330.846 59.1693C330.964 61.9456 332.904 63.7648 332.932 63.7521C332.953 63.7898 335.315 60.5476 334.922 57.6354C334.552 54.7627 332.063 53.561 332.089 53.5474C332.101 53.5758 330.737 56.4201 330.846 59.1693Z" fill="url(#paint37_linear_68_811)"/>
<path d="M326.247 64.5449C325.774 67.336 327.314 69.4952 327.346 69.4869C327.363 69.5297 330.423 66.7148 330.623 63.7433C330.84 60.8164 328.612 59.1771 328.642 59.167C328.65 59.1976 326.727 61.7836 326.247 64.5449Z" fill="url(#paint38_linear_68_811)"/>
<path d="M319.729 76C319.652 75.8509 319.576 75.7009 319.5 75.5518C345.225 62.5369 349.619 29.7533 332.434 10.0249C332.46 10.0018 332.487 9.97878 332.513 9.95587C332.539 9.93366 332.565 9.91116 332.591 9.88867C349.935 29.6316 345.715 62.7237 319.729 76Z" fill="url(#paint39_linear_68_811)"/>
<defs>
<linearGradient id="paint0_linear_68_811" x1="47.6177" y1="0" x2="47.6177" y2="9.08863" gradientUnits="userSpaceOnUse">
<stop stop-color="#FFC227"/>
<stop offset="1" stop-color="#FF9900"/>
</linearGradient>
<linearGradient id="paint1_linear_68_811" x1="38.5107" y1="1.00391" x2="38.5107" y2="12.6535" gradientUnits="userSpaceOnUse">
<stop stop-color="#FFC227"/>
<stop offset="1" stop-color="#FF9900"/>
</linearGradient>
<linearGradient id="paint2_linear_68_811" x1="33.492" y1="8.01611" x2="33.492" y2="19.6661" gradientUnits="userSpaceOnUse">
<stop stop-color="#FFC227"/>
<stop offset="1" stop-color="#FF9900"/>
</linearGradient>
<linearGradient id="paint3_linear_68_811" x1="29.9678" y1="15.9204" x2="29.9678" y2="27.205" gradientUnits="userSpaceOnUse">
<stop stop-color="#FFC227"/>
<stop offset="1" stop-color="#FF9900"/>
</linearGradient>
<linearGradient id="paint4_linear_68_811" x1="28.0064" y1="24.4624" x2="28.0064" y2="35.0483" gradientUnits="userSpaceOnUse">
<stop stop-color="#FFC227"/>
<stop offset="1" stop-color="#FF9900"/>
</linearGradient>
<linearGradient id="paint5_linear_68_811" x1="27.5121" y1="33.3862" x2="27.5121" y2="42.9723" gradientUnits="userSpaceOnUse">
<stop stop-color="#FFC227"/>
<stop offset="1" stop-color="#FF9900"/>
</linearGradient>
<linearGradient id="paint6_linear_68_811" x1="28.2963" y1="42.4341" x2="28.2963" y2="50.8712" gradientUnits="userSpaceOnUse">
<stop stop-color="#FFC227"/>
<stop offset="1" stop-color="#FF9900"/>
</linearGradient>
<linearGradient id="paint7_linear_68_811" x1="30.5133" y1="51.2847" x2="30.5133" y2="58.5756" gradientUnits="userSpaceOnUse">
<stop stop-color="#FFC227"/>
<stop offset="1" stop-color="#FF9900"/>
</linearGradient>
<linearGradient id="paint8_linear_68_811" x1="34.1741" y1="59.5664" x2="34.1741" y2="65.8517" gradientUnits="userSpaceOnUse">
<stop stop-color="#FFC227"/>
<stop offset="1" stop-color="#FF9900"/>
</linearGradient>
<linearGradient id="paint9_linear_68_811" x1="39.2802" y1="67.0024" x2="39.2802" y2="72.4609" gradientUnits="userSpaceOnUse">
<stop stop-color="#FFC227"/>
<stop offset="1" stop-color="#FF9900"/>
</linearGradient>
<linearGradient id="paint10_linear_68_811" x1="44.2712" y1="10.0552" x2="44.2712" y2="14.7114" gradientUnits="userSpaceOnUse">
<stop stop-color="#FFC227"/>
<stop offset="1" stop-color="#FF9900"/>
</linearGradient>
<linearGradient id="paint11_linear_68_811" x1="40.2405" y1="15.6826" x2="40.2405" y2="20.8776" gradientUnits="userSpaceOnUse">
<stop stop-color="#FFC227"/>
<stop offset="1" stop-color="#FF9900"/>
</linearGradient>
<linearGradient id="paint12_linear_68_811" x1="37.4017" y1="21.8042" x2="37.4017" y2="27.774" gradientUnits="userSpaceOnUse">
<stop stop-color="#FFC227"/>
<stop offset="1" stop-color="#FF9900"/>
</linearGradient>
<linearGradient id="paint13_linear_68_811" x1="35.7534" y1="28.208" x2="35.7534" y2="35.1815" gradientUnits="userSpaceOnUse">
<stop stop-color="#FFC227"/>
<stop offset="1" stop-color="#FF9900"/>
</linearGradient>
<linearGradient id="paint14_linear_68_811" x1="35.282" y1="34.688" x2="35.282" y2="42.7404" gradientUnits="userSpaceOnUse">
<stop stop-color="#FFC227"/>
<stop offset="1" stop-color="#FF9900"/>
</linearGradient>
<linearGradient id="paint15_linear_68_811" x1="35.8716" y1="41.126" x2="35.8716" y2="50.1651" gradientUnits="userSpaceOnUse">
<stop stop-color="#FFC227"/>
<stop offset="1" stop-color="#FF9900"/>
</linearGradient>
<linearGradient id="paint16_linear_68_811" x1="37.6541" y1="47.4731" x2="37.6541" y2="57.2406" gradientUnits="userSpaceOnUse">
<stop stop-color="#FFC227"/>
<stop offset="1" stop-color="#FF9900"/>
</linearGradient>
<linearGradient id="paint17_linear_68_811" x1="40.7069" y1="53.5474" x2="40.7069" y2="63.7524" gradientUnits="userSpaceOnUse">
<stop stop-color="#FFC227"/>
<stop offset="1" stop-color="#FF9900"/>
</linearGradient>
<linearGradient id="paint18_linear_68_811" x1="45.0072" y1="59.167" x2="45.0072" y2="69.4874" gradientUnits="userSpaceOnUse">
<stop stop-color="#FFC227"/>
<stop offset="1" stop-color="#FF9900"/>
</linearGradient>
<linearGradient id="paint19_linear_68_811" x1="42.2658" y1="9.88867" x2="42.2658" y2="76" gradientUnits="userSpaceOnUse">
<stop stop-color="#FFC227"/>
<stop offset="1" stop-color="#FF9900"/>
</linearGradient>
<linearGradient id="paint20_linear_68_811" x1="325.663" y1="0" x2="325.663" y2="9.08863" gradientUnits="userSpaceOnUse">
<stop stop-color="#FFC227"/>
<stop offset="1" stop-color="#FF9900"/>
</linearGradient>
<linearGradient id="paint21_linear_68_811" x1="335.204" y1="1.00391" x2="335.204" y2="12.6535" gradientUnits="userSpaceOnUse">
<stop stop-color="#FFC227"/>
<stop offset="1" stop-color="#FF9900"/>
</linearGradient>
<linearGradient id="paint22_linear_68_811" x1="340.462" y1="8.01611" x2="340.462" y2="19.6661" gradientUnits="userSpaceOnUse">
<stop stop-color="#FFC227"/>
<stop offset="1" stop-color="#FF9900"/>
</linearGradient>
<linearGradient id="paint23_linear_68_811" x1="344.154" y1="15.9204" x2="344.154" y2="27.2051" gradientUnits="userSpaceOnUse">
<stop stop-color="#FFC227"/>
<stop offset="1" stop-color="#FF9900"/>
</linearGradient>
<linearGradient id="paint24_linear_68_811" x1="346.209" y1="24.4624" x2="346.209" y2="35.0483" gradientUnits="userSpaceOnUse">
<stop stop-color="#FFC227"/>
<stop offset="1" stop-color="#FF9900"/>
</linearGradient>
<linearGradient id="paint25_linear_68_811" x1="346.727" y1="33.3862" x2="346.727" y2="42.9723" gradientUnits="userSpaceOnUse">
<stop stop-color="#FFC227"/>
<stop offset="1" stop-color="#FF9900"/>
</linearGradient>
<linearGradient id="paint26_linear_68_811" x1="345.905" y1="42.4341" x2="345.905" y2="50.8712" gradientUnits="userSpaceOnUse">
<stop stop-color="#FFC227"/>
<stop offset="1" stop-color="#FF9900"/>
</linearGradient>
<linearGradient id="paint27_linear_68_811" x1="343.582" y1="51.2847" x2="343.582" y2="58.5756" gradientUnits="userSpaceOnUse">
<stop stop-color="#FFC227"/>
<stop offset="1" stop-color="#FF9900"/>
</linearGradient>
<linearGradient id="paint28_linear_68_811" x1="339.747" y1="59.5664" x2="339.747" y2="65.8517" gradientUnits="userSpaceOnUse">
<stop stop-color="#FFC227"/>
<stop offset="1" stop-color="#FF9900"/>
</linearGradient>
<linearGradient id="paint29_linear_68_811" x1="334.398" y1="67.0024" x2="334.398" y2="72.4609" gradientUnits="userSpaceOnUse">
<stop stop-color="#FFC227"/>
<stop offset="1" stop-color="#FF9900"/>
</linearGradient>
<linearGradient id="paint30_linear_68_811" x1="329.169" y1="10.0552" x2="329.169" y2="14.7114" gradientUnits="userSpaceOnUse">
<stop stop-color="#FFC227"/>
<stop offset="1" stop-color="#FF9900"/>
</linearGradient>
<linearGradient id="paint31_linear_68_811" x1="333.391" y1="15.6826" x2="333.391" y2="20.8776" gradientUnits="userSpaceOnUse">
<stop stop-color="#FFC227"/>
<stop offset="1" stop-color="#FF9900"/>
</linearGradient>
<linearGradient id="paint32_linear_68_811" x1="336.366" y1="21.8042" x2="336.366" y2="27.774" gradientUnits="userSpaceOnUse">
<stop stop-color="#FFC227"/>
<stop offset="1" stop-color="#FF9900"/>
</linearGradient>
<linearGradient id="paint33_linear_68_811" x1="338.093" y1="28.208" x2="338.093" y2="35.1815" gradientUnits="userSpaceOnUse">
<stop stop-color="#FFC227"/>
<stop offset="1" stop-color="#FF9900"/>
</linearGradient>
<linearGradient id="paint34_linear_68_811" x1="338.587" y1="34.688" x2="338.587" y2="42.7404" gradientUnits="userSpaceOnUse">
<stop stop-color="#FFC227"/>
<stop offset="1" stop-color="#FF9900"/>
</linearGradient>
<linearGradient id="paint35_linear_68_811" x1="337.969" y1="41.126" x2="337.969" y2="50.1651" gradientUnits="userSpaceOnUse">
<stop stop-color="#FFC227"/>
<stop offset="1" stop-color="#FF9900"/>
</linearGradient>
<linearGradient id="paint36_linear_68_811" x1="336.101" y1="47.4731" x2="336.101" y2="57.2406" gradientUnits="userSpaceOnUse">
<stop stop-color="#FFC227"/>
<stop offset="1" stop-color="#FF9900"/>
</linearGradient>
<linearGradient id="paint37_linear_68_811" x1="332.903" y1="53.5474" x2="332.903" y2="63.7524" gradientUnits="userSpaceOnUse">
<stop stop-color="#FFC227"/>
<stop offset="1" stop-color="#FF9900"/>
</linearGradient>
<linearGradient id="paint38_linear_68_811" x1="328.397" y1="59.167" x2="328.397" y2="69.4874" gradientUnits="userSpaceOnUse">
<stop stop-color="#FFC227"/>
<stop offset="1" stop-color="#FF9900"/>
</linearGradient>
<linearGradient id="paint39_linear_68_811" x1="331.27" y1="9.88867" x2="331.27" y2="76" gradientUnits="userSpaceOnUse">
<stop stop-color="#FFC227"/>
<stop offset="1" stop-color="#FF9900"/>
</linearGradient>
</defs>
</svg>
