<svg width="287" height="99" viewBox="0 0 287 99" fill="none" xmlns="http://www.w3.org/2000/svg">
<path d="M109.575 26.42C108.105 27.845 106.5 27.62 104.955 26.945C103.32 26.255 101.82 26.225 100.095 26.945C97.9348 27.875 96.7948 27.605 95.5048 26.42C88.1848 18.875 89.2648 7.385 97.5748 6.965C99.5998 7.07 101.01 8.075 102.195 8.165C103.965 7.805 105.66 6.77 107.55 6.905C109.815 7.085 111.525 7.985 112.65 9.605C107.97 12.41 109.08 18.575 113.37 20.3C112.515 22.55 111.405 24.785 109.56 26.435L109.575 26.42ZM102.045 6.875C101.82 3.53 104.535 0.77 107.655 0.5C108.09 4.37 104.145 7.25 102.045 6.875Z" fill="#2E2E2E"/>
<path d="M124.688 20L128.971 8.02197H131.378L135.662 20H133.412L132.399 16.9038H127.942L126.929 20H124.688ZM130.15 10.1553L128.481 15.252H131.86L130.2 10.1553H130.15ZM136.659 22.9053V11.2012H138.726V12.7202H138.768C139.274 11.666 140.237 11.0186 141.499 11.0186C143.732 11.0186 145.143 12.7617 145.143 15.6006V15.6089C145.143 18.4312 143.732 20.1743 141.523 20.1743C140.27 20.1743 139.266 19.5435 138.768 18.5142H138.726V22.9053H136.659ZM140.884 18.4312C142.204 18.4312 143.034 17.3438 143.034 15.6089V15.6006C143.034 13.8408 142.204 12.7617 140.884 12.7617C139.606 12.7617 138.71 13.874 138.71 15.6006V15.6089C138.71 17.3271 139.606 18.4312 140.884 18.4312ZM146.398 22.9053V11.2012H148.465V12.7202H148.506C149.012 11.666 149.975 11.0186 151.237 11.0186C153.47 11.0186 154.881 12.7617 154.881 15.6006V15.6089C154.881 18.4312 153.47 20.1743 151.262 20.1743C150.009 20.1743 149.004 19.5435 148.506 18.5142H148.465V22.9053H146.398ZM150.623 18.4312C151.943 18.4312 152.773 17.3438 152.773 15.6089V15.6006C152.773 13.8408 151.943 12.7617 150.623 12.7617C149.344 12.7617 148.448 13.874 148.448 15.6006V15.6089C148.448 17.3271 149.344 18.4312 150.623 18.4312ZM163.882 20.2075C161.135 20.2075 159.325 18.9126 159.184 16.7627L159.176 16.6382H161.226L161.243 16.7378C161.4 17.7671 162.455 18.4062 163.957 18.4062C165.468 18.4062 166.414 17.7339 166.414 16.7046V16.6963C166.414 15.7998 165.792 15.3184 164.248 14.9946L162.961 14.729C160.604 14.2393 159.441 13.1436 159.441 11.3589V11.3506C159.45 9.24219 161.301 7.81445 163.882 7.81445C166.497 7.81445 168.207 9.19238 168.332 11.2427L168.34 11.3838H166.29L166.273 11.2842C166.132 10.2383 165.21 9.61572 163.866 9.61572C162.463 9.62402 161.591 10.2798 161.591 11.2344V11.2427C161.591 12.0894 162.247 12.5874 163.691 12.8862L164.986 13.1519C167.477 13.6665 168.564 14.6792 168.564 16.5469V16.5552C168.564 18.7881 166.804 20.2075 163.882 20.2075ZM173.156 20.1743C171.313 20.1743 170.442 19.4272 170.442 17.6177V12.7949H169.196V11.2012H170.442V8.96826H172.542V11.2012H174.177V12.7949H172.542V17.4434C172.542 18.3066 172.923 18.5806 173.679 18.5806C173.878 18.5806 174.036 18.5557 174.177 18.5474V20.0996C173.936 20.1328 173.571 20.1743 173.156 20.1743ZM179.25 20.1743C176.66 20.1743 174.992 18.4478 174.992 15.6006V15.584C174.992 12.7617 176.685 11.0186 179.242 11.0186C181.807 11.0186 183.509 12.7451 183.509 15.584V15.6006C183.509 18.4561 181.832 20.1743 179.25 20.1743ZM179.259 18.5059C180.562 18.5059 181.4 17.4434 181.4 15.6006V15.584C181.4 13.7495 180.554 12.6953 179.242 12.6953C177.955 12.6953 177.1 13.7578 177.1 15.584V15.6006C177.1 17.4517 177.939 18.5059 179.259 18.5059ZM184.764 20V11.2012H186.831V12.7202H186.872C187.146 11.6577 187.876 11.0186 188.889 11.0186C189.146 11.0186 189.387 11.0601 189.545 11.1016V12.9692C189.371 12.9028 189.055 12.853 188.706 12.853C187.536 12.853 186.831 13.5918 186.831 14.895V20H184.764ZM194.07 20.1743C191.431 20.1743 189.837 18.4229 189.837 15.6255V15.6172C189.837 12.8447 191.456 11.0186 193.971 11.0186C196.486 11.0186 198.046 12.7866 198.046 15.4429V16.1069H191.887C191.92 17.6509 192.767 18.564 194.112 18.564C195.141 18.564 195.814 18.0161 196.013 17.4268L196.029 17.3687H197.963L197.939 17.46C197.665 18.813 196.37 20.1743 194.07 20.1743ZM193.996 12.6372C192.9 12.6372 192.078 13.376 191.912 14.729H196.038C195.888 13.3345 195.091 12.6372 193.996 12.6372Z" fill="#2E2E2E"/>
<path d="M73.3107 60V57.2949H66.2795V55.1465L72.1291 45.9082H75.713V55.2246H77.6271V57.2949H75.713V60H73.3107ZM68.5451 55.2832H73.3498V47.8125H73.2912L68.5451 55.2148V55.2832ZM80.418 60.1562C79.627 60.1562 79.002 59.5312 79.002 58.7402C79.002 57.959 79.627 57.334 80.418 57.334C81.209 57.334 81.8242 57.959 81.8242 58.7402C81.8242 59.5312 81.209 60.1562 80.418 60.1562ZM83.9803 60L90.162 48.0176V47.9688H82.8377V45.9082H92.6424V48.0078L86.617 60H83.9803Z" fill="#2E2E2E"/>
<path d="M115.497 43.5417C116.371 43.5417 117.06 44.2022 117.5 45.0933L118.968 48.0544C119.012 48.146 119.118 48.2751 119.277 48.3931C119.435 48.511 119.59 48.5761 119.693 48.5933L122.351 49.0385C123.311 49.1999 124.115 49.6705 124.377 50.49C124.638 51.3088 124.255 52.1598 123.565 52.8514L123.564 52.8521L121.499 54.9341C121.417 55.0166 121.326 55.1721 121.268 55.3746C121.211 55.5758 121.206 55.759 121.232 55.8774L121.232 55.879L121.823 58.4546C122.068 59.5265 121.987 60.5895 121.231 61.1452C120.472 61.7029 119.436 61.4557 118.494 60.8948L116.002 59.4076C115.897 59.3451 115.718 59.2944 115.501 59.2944C115.286 59.2944 115.102 59.3444 114.991 59.4092L114.989 59.4102L112.502 60.8944C111.562 61.4573 110.526 61.7001 109.768 61.1419C109.012 60.5861 108.927 59.5251 109.173 58.454L109.763 55.879L109.764 55.8774C109.79 55.759 109.784 55.5758 109.727 55.3746C109.67 55.1721 109.578 55.0166 109.496 54.9341L107.43 52.8506C106.744 52.1589 106.363 51.3088 106.622 50.4911C106.881 49.6711 107.685 49.1999 108.645 49.0385L111.301 48.5936L111.302 48.5934C111.399 48.5765 111.552 48.5122 111.71 48.394C111.869 48.2755 111.975 48.1462 112.019 48.0544L112.022 48.0498L113.488 45.0926L113.489 45.0914C113.932 44.201 114.623 43.5417 115.497 43.5417Z" fill="url(#paint0_linear_2001_784)"/>
<path d="M139.497 43.5417C140.371 43.5417 141.06 44.2022 141.5 45.0933L142.968 48.0544C143.012 48.146 143.118 48.2751 143.277 48.3931C143.435 48.511 143.59 48.5761 143.693 48.5933L146.351 49.0385C147.311 49.1999 148.115 49.6705 148.377 50.49C148.638 51.3088 148.255 52.1598 147.565 52.8514L147.564 52.8521L145.499 54.9341C145.417 55.0166 145.326 55.1721 145.268 55.3746C145.211 55.5758 145.206 55.759 145.232 55.8774L145.232 55.879L145.823 58.4546C146.068 59.5265 145.987 60.5895 145.231 61.1452C144.472 61.7029 143.436 61.4557 142.494 60.8948L140.002 59.4076C139.897 59.3451 139.718 59.2944 139.501 59.2944C139.286 59.2944 139.102 59.3444 138.991 59.4092L138.989 59.4102L136.502 60.8944C135.562 61.4573 134.526 61.7001 133.768 61.1419C133.012 60.5861 132.927 59.5251 133.173 58.454L133.763 55.879L133.764 55.8774C133.79 55.759 133.784 55.5758 133.727 55.3746C133.67 55.1721 133.578 55.0166 133.496 54.9341L131.43 52.8506C130.744 52.1589 130.363 51.3088 130.622 50.4911C130.881 49.6711 131.685 49.1999 132.645 49.0385L135.301 48.5936L135.302 48.5934C135.399 48.5765 135.552 48.5122 135.71 48.394C135.869 48.2755 135.975 48.1462 136.019 48.0544L136.022 48.0498L137.488 45.0926L137.489 45.0914C137.932 44.201 138.623 43.5417 139.497 43.5417Z" fill="url(#paint1_linear_2001_784)"/>
<path d="M163.497 43.5417C164.371 43.5417 165.06 44.2022 165.5 45.0933L166.968 48.0544C167.012 48.146 167.118 48.2751 167.277 48.3931C167.435 48.511 167.59 48.5761 167.693 48.5933L170.351 49.0385C171.311 49.1999 172.115 49.6705 172.377 50.49C172.638 51.3088 172.255 52.1598 171.565 52.8514L171.564 52.8521L169.499 54.9341C169.417 55.0166 169.326 55.1721 169.268 55.3746C169.211 55.5758 169.206 55.759 169.232 55.8774L169.232 55.879L169.823 58.4546C170.068 59.5265 169.987 60.5895 169.231 61.1452C168.472 61.7029 167.436 61.4557 166.494 60.8948L164.002 59.4076C163.897 59.3451 163.718 59.2944 163.501 59.2944C163.286 59.2944 163.102 59.3444 162.991 59.4092L162.989 59.4102L160.502 60.8944C159.562 61.4573 158.526 61.7001 157.768 61.1419C157.012 60.5861 156.927 59.5251 157.173 58.454L157.763 55.879L157.764 55.8774C157.79 55.759 157.784 55.5758 157.727 55.3746C157.67 55.1721 157.578 55.0166 157.496 54.9341L155.43 52.8506C154.744 52.1589 154.363 51.3088 154.622 50.4911C154.881 49.6711 155.685 49.1999 156.645 49.0385L159.301 48.5936L159.302 48.5934C159.399 48.5765 159.552 48.5122 159.71 48.394C159.869 48.2755 159.975 48.1462 160.019 48.0544L160.022 48.0498L161.488 45.0926L161.489 45.0914C161.932 44.201 162.623 43.5417 163.497 43.5417Z" fill="url(#paint2_linear_2001_784)"/>
<path d="M187.497 43.5417C188.371 43.5417 189.06 44.2022 189.5 45.0933L190.968 48.0544C191.012 48.146 191.118 48.2751 191.277 48.3931C191.435 48.511 191.59 48.5761 191.693 48.5933L194.351 49.0385C195.311 49.1999 196.115 49.6705 196.377 50.49C196.638 51.3088 196.255 52.1598 195.565 52.8514L195.564 52.8521L193.499 54.9341C193.417 55.0166 193.326 55.1721 193.268 55.3746C193.211 55.5758 193.206 55.759 193.232 55.8774L193.232 55.879L193.823 58.4546C194.068 59.5265 193.987 60.5895 193.231 61.1452C192.472 61.7029 191.436 61.4557 190.494 60.8948L188.002 59.4076C187.897 59.3451 187.718 59.2944 187.501 59.2944C187.286 59.2944 187.102 59.3444 186.991 59.4092L186.989 59.4102L184.502 60.8944C183.562 61.4573 182.526 61.7001 181.768 61.1419C181.012 60.5861 180.927 59.5251 181.173 58.454L181.763 55.879L181.764 55.8774C181.79 55.759 181.784 55.5758 181.727 55.3746C181.67 55.1721 181.578 55.0166 181.496 54.9341L179.43 52.8506C178.744 52.1589 178.363 51.3088 178.622 50.4911C178.881 49.6711 179.685 49.1999 180.645 49.0385L183.301 48.5936L183.302 48.5934C183.399 48.5765 183.552 48.5122 183.71 48.394C183.869 48.2755 183.975 48.1462 184.019 48.0544L184.022 48.0498L185.488 45.0926L185.489 45.0914C185.932 44.201 186.623 43.5417 187.497 43.5417Z" fill="url(#paint3_linear_2001_784)"/>
<g clip-path="url(#clip0_2001_784)">
<path d="M211.497 43.5417C212.371 43.5417 213.06 44.2022 213.5 45.0933L214.968 48.0544C215.012 48.146 215.118 48.2751 215.277 48.3931C215.435 48.511 215.59 48.5761 215.693 48.5933L218.351 49.0385C219.311 49.1999 220.115 49.6705 220.377 50.49C220.638 51.3088 220.255 52.1598 219.565 52.8514L219.564 52.8521L217.499 54.9341C217.417 55.0166 217.326 55.1721 217.268 55.3746C217.211 55.5758 217.206 55.759 217.232 55.8774L217.232 55.879L217.823 58.4546C218.068 59.5265 217.987 60.5895 217.231 61.1452C216.472 61.7029 215.436 61.4557 214.494 60.8948L212.002 59.4076C211.897 59.3451 211.718 59.2944 211.501 59.2944C211.286 59.2944 211.102 59.3444 210.991 59.4092L210.989 59.4102L208.502 60.8944C207.562 61.4573 206.526 61.7001 205.768 61.1419C205.012 60.5861 204.927 59.5251 205.173 58.454L205.763 55.879L205.764 55.8774C205.79 55.759 205.784 55.5758 205.727 55.3746C205.67 55.1721 205.578 55.0166 205.496 54.9341L203.43 52.8506C202.744 52.1589 202.363 51.3088 202.622 50.4911C202.881 49.6711 203.685 49.1999 204.645 49.0385L207.301 48.5936L207.302 48.5934C207.399 48.5765 207.552 48.5122 207.71 48.394C207.869 48.2755 207.975 48.1462 208.019 48.0544L208.022 48.0498L209.488 45.0926L209.489 45.0914C209.932 44.201 210.623 43.5417 211.497 43.5417Z" fill="#EBF5FF"/>
<g clip-path="url(#clip1_2001_784)">
<path d="M211.497 43.5417C212.371 43.5417 213.06 44.2022 213.5 45.0933L214.968 48.0544C215.012 48.146 215.118 48.2751 215.277 48.3931C215.435 48.511 215.59 48.5761 215.693 48.5933L218.351 49.0385C219.311 49.1999 220.115 49.6705 220.377 50.49C220.638 51.3088 220.255 52.1598 219.565 52.8514L219.564 52.8521L217.499 54.9341C217.417 55.0166 217.326 55.1721 217.268 55.3746C217.211 55.5758 217.206 55.759 217.232 55.8774L217.232 55.879L217.823 58.4546C218.068 59.5265 217.987 60.5895 217.231 61.1452C216.472 61.7029 215.436 61.4557 214.494 60.8948L212.002 59.4076C211.897 59.3451 211.718 59.2944 211.501 59.2944C211.286 59.2944 211.102 59.3444 210.991 59.4092L210.989 59.4102L208.502 60.8944C207.562 61.4573 206.526 61.7001 205.768 61.1419C205.012 60.5861 204.927 59.5251 205.173 58.454L205.763 55.879L205.764 55.8774C205.79 55.759 205.784 55.5758 205.727 55.3746C205.67 55.1721 205.578 55.0166 205.496 54.9341L203.43 52.8506C202.744 52.1589 202.363 51.3088 202.622 50.4911C202.881 49.6711 203.685 49.1999 204.645 49.0385L207.301 48.5936L207.302 48.5934C207.399 48.5765 207.552 48.5122 207.71 48.394C207.869 48.2755 207.975 48.1462 208.019 48.0544L208.022 48.0498L209.488 45.0926L209.489 45.0914C209.932 44.201 210.623 43.5417 211.497 43.5417Z" fill="url(#paint4_linear_2001_784)"/>
</g>
</g>
<path d="M100.696 94.1992C98.1398 94.1992 96.4714 92.8047 96.3054 90.854L96.2971 90.7461H98.0817L98.09 90.8374C98.2063 91.8999 99.2106 92.647 100.696 92.647C102.157 92.647 103.145 91.8335 103.145 90.6714V90.6548C103.145 89.3018 102.166 88.5464 100.564 88.5464H99.111V87.1021H100.514C101.883 87.1021 102.813 86.2969 102.813 85.1846V85.168C102.813 84.0142 102.033 83.3418 100.68 83.3418C99.3518 83.3418 98.4221 84.0391 98.3059 85.1514L98.2976 85.2261H96.5544L96.5627 85.1431C96.7453 83.1426 98.3391 81.8228 100.68 81.8228C103.062 81.8228 104.623 83.0845 104.623 84.9272V84.9438C104.623 86.4297 103.56 87.4258 102.099 87.7329V87.7744C103.859 87.9321 105.038 88.9946 105.038 90.6714V90.688C105.038 92.7383 103.237 94.1992 100.696 94.1992ZM111.223 94.1992C108.775 94.1992 106.517 92.4976 106.517 88.1895V88.1729C106.517 84.1802 108.302 81.8228 111.298 81.8228C113.431 81.8228 115.034 83.043 115.415 84.8276L115.44 84.9272H113.573L113.548 84.8442C113.207 83.9478 112.427 83.3833 111.282 83.3833C109.223 83.3833 108.385 85.3672 108.31 87.7412C108.302 87.8491 108.302 87.957 108.302 88.0649H108.343C108.816 86.9858 110.028 86.1392 111.655 86.1392C113.946 86.1392 115.598 87.8076 115.598 90.0737V90.0903C115.598 92.481 113.747 94.1992 111.223 94.1992ZM108.667 90.0986C108.667 91.5181 109.779 92.6387 111.199 92.6387C112.618 92.6387 113.747 91.5347 113.747 90.1401V90.1235C113.747 88.6792 112.684 87.6499 111.223 87.6499C109.771 87.6499 108.667 88.6709 108.667 90.0903V90.0986ZM118.264 94.1245C117.65 94.1245 117.168 93.6431 117.168 93.0371C117.168 92.4229 117.65 91.9497 118.264 91.9497C118.87 91.9497 119.352 92.4229 119.352 93.0371C119.352 93.6431 118.87 94.1245 118.264 94.1245ZM125.454 81.8228C127.903 81.8228 130.161 83.5244 130.161 87.8325V87.8491C130.161 91.8418 128.376 94.1992 125.38 94.1992C123.246 94.1992 121.644 92.979 121.262 91.1943L121.237 91.0947H123.097L123.13 91.1777C123.47 92.0742 124.251 92.6387 125.396 92.6387C127.455 92.6387 128.293 90.6548 128.368 88.2808C128.376 88.1729 128.376 88.0649 128.376 87.957H128.335C127.861 89.0361 126.65 89.8828 125.023 89.8828C122.732 89.8828 121.071 88.2144 121.071 85.9482V85.9316C121.071 83.541 122.923 81.8228 125.454 81.8228ZM125.446 88.3721C126.907 88.3721 128.011 87.3511 128.011 85.9316V85.9233C128.011 84.5039 126.899 83.3833 125.471 83.3833C124.06 83.3833 122.923 84.4873 122.923 85.8818V85.8984C122.923 87.3428 123.993 88.3721 125.446 88.3721ZM131.922 94V82.022H133.782V87.7578H133.831L138.662 82.022H140.87L136.33 87.3179L141.261 94H138.961L135.002 88.5879L133.782 89.999V94H131.922ZM145.771 94V82.022H150.42C152.868 82.022 154.412 83.4414 154.412 85.6909V85.7075C154.412 87.3345 153.524 88.6294 152.088 89.1191L154.769 94H152.628L150.187 89.4014H147.63V94H145.771ZM147.63 87.874H150.237C151.673 87.874 152.495 87.0854 152.495 85.7241V85.7075C152.495 84.3794 151.615 83.5825 150.187 83.5825H147.63V87.874ZM158.29 94.1577C156.547 94.1577 155.377 93.0869 155.377 91.5181V91.5015C155.377 89.9824 156.555 89.0527 158.622 88.9282L160.996 88.7871V88.1313C160.996 87.1685 160.374 86.5874 159.261 86.5874C158.224 86.5874 157.585 87.0771 157.435 87.7744L157.419 87.8491H155.725L155.734 87.7578C155.858 86.2554 157.161 85.1016 159.311 85.1016C161.445 85.1016 162.798 86.2305 162.798 87.9819V94H160.996V92.6221H160.963C160.457 93.5601 159.444 94.1577 158.29 94.1577ZM157.186 91.4766C157.186 92.2402 157.817 92.7217 158.78 92.7217C160.042 92.7217 160.996 91.8667 160.996 90.7295V90.0488L158.863 90.1816C157.784 90.248 157.186 90.7212 157.186 91.46V91.4766ZM167.531 94.1743C165.804 94.1743 164.974 93.4438 164.974 91.7007V86.6953H163.721V85.2676H164.974V82.9932H166.808V85.2676H168.444V86.6953H166.808V91.5928C166.808 92.481 167.207 92.7466 167.962 92.7466C168.153 92.7466 168.311 92.73 168.444 92.7134V94.0996C168.236 94.1328 167.896 94.1743 167.531 94.1743ZM170.828 83.9229C170.247 83.9229 169.782 83.458 169.782 82.8936C169.782 82.3208 170.247 81.856 170.828 81.856C171.417 81.856 171.874 82.3208 171.874 82.8936C171.874 83.458 171.417 83.9229 170.828 83.9229ZM169.931 94V85.2676H171.724V94H169.931ZM173.502 94V85.2676H175.295V86.5874H175.337C175.793 85.6992 176.69 85.1016 178.009 85.1016C179.927 85.1016 181.031 86.3384 181.031 88.3472V94H179.23V88.6875C179.23 87.376 178.615 86.6372 177.37 86.6372C176.109 86.6372 175.295 87.5503 175.295 88.9116V94H173.502ZM186.519 97.0796C184.278 97.0796 182.859 96.042 182.593 94.7056L182.585 94.6309H184.361L184.394 94.6973C184.635 95.2534 185.39 95.6353 186.511 95.6353C187.939 95.6353 188.727 94.8716 188.727 93.6514V92.4561H188.686C188.188 93.4023 187.192 94.0083 185.938 94.0083C183.747 94.0083 182.303 92.29 182.303 89.5674V89.5591C182.303 86.8198 183.763 85.1016 185.98 85.1016C187.208 85.1016 188.171 85.7656 188.686 86.7534H188.727V85.2676H190.529V93.7593C190.529 95.7515 188.985 97.0796 186.519 97.0796ZM186.445 92.5474C187.814 92.5474 188.727 91.3936 188.727 89.5923V89.584C188.727 87.791 187.806 86.6372 186.445 86.6372C185.025 86.6372 184.137 87.7827 184.137 89.584V89.5923C184.137 91.4185 185.025 92.5474 186.445 92.5474Z" fill="#2E2E2E" fill-opacity="0.7"/>
<defs>
<linearGradient id="paint0_linear_2001_784" x1="115.5" y1="43.5417" x2="115.5" y2="61.4596" gradientUnits="userSpaceOnUse">
<stop stop-color="#FFC227"/>
<stop offset="1" stop-color="#FF9900"/>
</linearGradient>
<linearGradient id="paint1_linear_2001_784" x1="139.5" y1="43.5417" x2="139.5" y2="61.4596" gradientUnits="userSpaceOnUse">
<stop stop-color="#FFC227"/>
<stop offset="1" stop-color="#FF9900"/>
</linearGradient>
<linearGradient id="paint2_linear_2001_784" x1="163.5" y1="43.5417" x2="163.5" y2="61.4596" gradientUnits="userSpaceOnUse">
<stop stop-color="#FFC227"/>
<stop offset="1" stop-color="#FF9900"/>
</linearGradient>
<linearGradient id="paint3_linear_2001_784" x1="187.5" y1="43.5417" x2="187.5" y2="61.4596" gradientUnits="userSpaceOnUse">
<stop stop-color="#FFC227"/>
<stop offset="1" stop-color="#FF9900"/>
</linearGradient>
<linearGradient id="paint4_linear_2001_784" x1="211.5" y1="43.5417" x2="211.5" y2="61.4596" gradientUnits="userSpaceOnUse">
<stop stop-color="#FFC227"/>
<stop offset="1" stop-color="#FF9900"/>
</linearGradient>
<clipPath id="clip0_2001_784">
<rect width="20" height="20" fill="white" transform="translate(201.5 42.5)"/>
</clipPath>
<clipPath id="clip1_2001_784">
<rect width="13" height="19" fill="white" transform="translate(201 43)"/>
</clipPath>
</defs>
</svg>
