<svg width="287" height="99" viewBox="0 0 287 99" fill="none" xmlns="http://www.w3.org/2000/svg">
<path d="M109.575 26.42C108.105 27.845 106.5 27.62 104.955 26.945C103.32 26.255 101.82 26.225 100.095 26.945C97.9348 27.875 96.7948 27.605 95.5048 26.42C88.1848 18.875 89.2648 7.385 97.5748 6.965C99.5998 7.07 101.01 8.075 102.195 8.165C103.965 7.805 105.66 6.77 107.55 6.905C109.815 7.085 111.525 7.985 112.65 9.605C107.97 12.41 109.08 18.575 113.37 20.3C112.515 22.55 111.405 24.785 109.56 26.435L109.575 26.42ZM102.045 6.875C101.82 3.53 104.535 0.77 107.655 0.5C108.09 4.37 104.145 7.25 102.045 6.875Z" fill="#2E2E2E"/>
<path d="M124.688 20L128.971 8.02197H131.378L135.662 20H133.412L132.399 16.9038H127.942L126.929 20H124.688ZM130.15 10.1553L128.481 15.252H131.86L130.2 10.1553H130.15ZM136.659 22.9053V11.2012H138.726V12.7202H138.768C139.274 11.666 140.237 11.0186 141.499 11.0186C143.732 11.0186 145.143 12.7617 145.143 15.6006V15.6089C145.143 18.4312 143.732 20.1743 141.523 20.1743C140.27 20.1743 139.266 19.5435 138.768 18.5142H138.726V22.9053H136.659ZM140.884 18.4312C142.204 18.4312 143.034 17.3438 143.034 15.6089V15.6006C143.034 13.8408 142.204 12.7617 140.884 12.7617C139.606 12.7617 138.71 13.874 138.71 15.6006V15.6089C138.71 17.3271 139.606 18.4312 140.884 18.4312ZM146.398 22.9053V11.2012H148.465V12.7202H148.506C149.012 11.666 149.975 11.0186 151.237 11.0186C153.47 11.0186 154.881 12.7617 154.881 15.6006V15.6089C154.881 18.4312 153.47 20.1743 151.262 20.1743C150.009 20.1743 149.004 19.5435 148.506 18.5142H148.465V22.9053H146.398ZM150.623 18.4312C151.943 18.4312 152.773 17.3438 152.773 15.6089V15.6006C152.773 13.8408 151.943 12.7617 150.623 12.7617C149.344 12.7617 148.448 13.874 148.448 15.6006V15.6089C148.448 17.3271 149.344 18.4312 150.623 18.4312ZM163.882 20.2075C161.135 20.2075 159.325 18.9126 159.184 16.7627L159.176 16.6382H161.226L161.243 16.7378C161.4 17.7671 162.455 18.4062 163.957 18.4062C165.468 18.4062 166.414 17.7339 166.414 16.7046V16.6963C166.414 15.7998 165.792 15.3184 164.248 14.9946L162.961 14.729C160.604 14.2393 159.441 13.1436 159.441 11.3589V11.3506C159.45 9.24219 161.301 7.81445 163.882 7.81445C166.497 7.81445 168.207 9.19238 168.332 11.2427L168.34 11.3838H166.29L166.273 11.2842C166.132 10.2383 165.21 9.61572 163.866 9.61572C162.463 9.62402 161.591 10.2798 161.591 11.2344V11.2427C161.591 12.0894 162.247 12.5874 163.691 12.8862L164.986 13.1519C167.477 13.6665 168.564 14.6792 168.564 16.5469V16.5552C168.564 18.7881 166.804 20.2075 163.882 20.2075ZM173.156 20.1743C171.313 20.1743 170.442 19.4272 170.442 17.6177V12.7949H169.196V11.2012H170.442V8.96826H172.542V11.2012H174.177V12.7949H172.542V17.4434C172.542 18.3066 172.923 18.5806 173.679 18.5806C173.878 18.5806 174.036 18.5557 174.177 18.5474V20.0996C173.936 20.1328 173.571 20.1743 173.156 20.1743ZM179.25 20.1743C176.66 20.1743 174.992 18.4478 174.992 15.6006V15.584C174.992 12.7617 176.685 11.0186 179.242 11.0186C181.807 11.0186 183.509 12.7451 183.509 15.584V15.6006C183.509 18.4561 181.832 20.1743 179.25 20.1743ZM179.259 18.5059C180.562 18.5059 181.4 17.4434 181.4 15.6006V15.584C181.4 13.7495 180.554 12.6953 179.242 12.6953C177.955 12.6953 177.1 13.7578 177.1 15.584V15.6006C177.1 17.4517 177.939 18.5059 179.259 18.5059ZM184.764 20V11.2012H186.831V12.7202H186.872C187.146 11.6577 187.876 11.0186 188.889 11.0186C189.146 11.0186 189.387 11.0601 189.545 11.1016V12.9692C189.371 12.9028 189.055 12.853 188.706 12.853C187.536 12.853 186.831 13.5918 186.831 14.895V20H184.764ZM194.07 20.1743C191.431 20.1743 189.837 18.4229 189.837 15.6255V15.6172C189.837 12.8447 191.456 11.0186 193.971 11.0186C196.486 11.0186 198.046 12.7866 198.046 15.4429V16.1069H191.887C191.92 17.6509 192.767 18.564 194.112 18.564C195.141 18.564 195.814 18.0161 196.013 17.4268L196.029 17.3687H197.963L197.939 17.46C197.665 18.813 196.37 20.1743 194.07 20.1743ZM193.996 12.6372C192.9 12.6372 192.078 13.376 191.912 14.729H196.038C195.888 13.3345 195.091 12.6372 193.996 12.6372Z" fill="#2E2E2E"/>
<path d="M79.6465 60.2441C76.7168 60.2441 74.7246 58.4961 74.5391 56.1621L74.5293 56.0352H76.8926L76.9023 56.1035C77.1074 57.2852 78.1816 58.1934 79.666 58.1934C81.3457 58.1934 82.5078 57.041 82.5078 55.3906V55.3711C82.5078 53.7598 81.3262 52.6074 79.6758 52.6074C78.875 52.6074 78.1816 52.8516 77.6445 53.3008C77.3809 53.5156 77.1465 53.7891 76.9805 54.1016H74.7832L75.457 45.9082H84.1094V47.9688H77.4688L77.0781 52.2168H77.127C77.7422 51.2695 78.9043 50.7129 80.3203 50.7129C83.0059 50.7129 84.9395 52.6562 84.9395 55.332V55.3516C84.9395 58.252 82.7617 60.2441 79.6465 60.2441Z" fill="#2E2E2E"/>
<path d="M107.997 43.542C108.871 43.542 109.56 44.2024 110 45.0936L111.468 48.0546C111.512 48.1463 111.618 48.2753 111.777 48.3934C111.935 48.5113 112.09 48.5763 112.193 48.5935L114.851 49.0388C115.811 49.2001 116.615 49.6707 116.877 50.4902C117.138 51.3091 116.755 52.16 116.065 52.8517L116.064 52.8524L113.999 54.9344C113.917 55.0169 113.826 55.1723 113.768 55.3749C113.711 55.576 113.706 55.7592 113.732 55.8776L113.732 55.8793L114.323 58.4548C114.568 59.5268 114.487 60.5898 113.731 61.1455C112.972 61.7031 111.936 61.4559 110.994 60.895L108.502 59.4078C108.397 59.3453 108.218 59.2947 108.001 59.2947C107.786 59.2947 107.602 59.3446 107.491 59.4095L107.489 59.4104L105.002 60.8947C104.062 61.4575 103.026 61.7003 102.268 61.1422C101.512 60.5863 101.427 59.5254 101.673 58.4543L102.263 55.8793L102.264 55.8776C102.29 55.7592 102.284 55.576 102.227 55.3749C102.17 55.1723 102.078 55.0169 101.996 54.9344L99.9299 52.8509C99.2439 52.1592 98.8627 51.309 99.1216 50.4914C99.3813 49.6714 100.185 49.2002 101.145 49.0387L103.801 48.5938L103.802 48.5937C103.899 48.5768 104.052 48.5125 104.21 48.3942C104.369 48.2758 104.475 48.1465 104.519 48.0546L104.522 48.05L105.988 45.0928L105.989 45.0916C106.432 44.2012 107.123 43.542 107.997 43.542Z" fill="url(#paint0_linear_2016_757)"/>
<path d="M131.997 43.542C132.871 43.542 133.56 44.2024 134 45.0936L135.468 48.0546C135.512 48.1463 135.618 48.2753 135.777 48.3934C135.935 48.5113 136.09 48.5763 136.193 48.5935L138.851 49.0388C139.811 49.2001 140.615 49.6707 140.877 50.4902C141.138 51.3091 140.755 52.16 140.065 52.8517L140.064 52.8524L137.999 54.9344C137.917 55.0169 137.826 55.1723 137.768 55.3749C137.711 55.576 137.706 55.7592 137.732 55.8776L137.732 55.8793L138.323 58.4548C138.568 59.5268 138.487 60.5898 137.731 61.1455C136.972 61.7031 135.936 61.4559 134.994 60.895L132.502 59.4078C132.397 59.3453 132.218 59.2947 132.001 59.2947C131.786 59.2947 131.602 59.3446 131.491 59.4095L131.489 59.4104L129.002 60.8947C128.062 61.4575 127.026 61.7003 126.268 61.1422C125.512 60.5863 125.427 59.5254 125.673 58.4543L126.263 55.8793L126.264 55.8776C126.29 55.7592 126.284 55.576 126.227 55.3749C126.17 55.1723 126.078 55.0169 125.996 54.9344L123.93 52.8509C123.244 52.1592 122.863 51.309 123.122 50.4914C123.381 49.6714 124.185 49.2002 125.145 49.0387L127.801 48.5938L127.802 48.5937C127.899 48.5768 128.052 48.5125 128.21 48.3942C128.369 48.2758 128.475 48.1465 128.519 48.0546L128.522 48.05L129.988 45.0928L129.989 45.0916C130.432 44.2012 131.123 43.542 131.997 43.542Z" fill="url(#paint1_linear_2016_757)"/>
<path d="M155.997 43.542C156.871 43.542 157.56 44.2024 158 45.0936L159.468 48.0546C159.512 48.1463 159.618 48.2753 159.777 48.3934C159.935 48.5113 160.09 48.5763 160.193 48.5935L162.851 49.0388C163.811 49.2001 164.615 49.6707 164.877 50.4902C165.138 51.3091 164.755 52.16 164.065 52.8517L164.064 52.8524L161.999 54.9344C161.917 55.0169 161.826 55.1723 161.768 55.3749C161.711 55.576 161.706 55.7592 161.732 55.8776L161.732 55.8793L162.323 58.4548C162.568 59.5268 162.487 60.5898 161.731 61.1455C160.972 61.7031 159.936 61.4559 158.994 60.895L156.502 59.4078C156.397 59.3453 156.218 59.2947 156.001 59.2947C155.786 59.2947 155.602 59.3446 155.491 59.4095L155.489 59.4104L153.002 60.8947C152.062 61.4575 151.026 61.7003 150.268 61.1422C149.512 60.5863 149.427 59.5254 149.673 58.4543L150.263 55.8793L150.264 55.8776C150.29 55.7592 150.284 55.576 150.227 55.3749C150.17 55.1723 150.078 55.0169 149.996 54.9344L147.93 52.8509C147.244 52.1592 146.863 51.309 147.122 50.4914C147.381 49.6714 148.185 49.2002 149.145 49.0387L151.801 48.5938L151.802 48.5937C151.899 48.5768 152.052 48.5125 152.21 48.3942C152.369 48.2758 152.475 48.1465 152.519 48.0546L152.522 48.05L153.988 45.0928L153.989 45.0916C154.432 44.2012 155.123 43.542 155.997 43.542Z" fill="url(#paint2_linear_2016_757)"/>
<path d="M179.997 43.542C180.871 43.542 181.56 44.2024 182 45.0936L183.468 48.0546C183.512 48.1463 183.618 48.2753 183.777 48.3934C183.935 48.5113 184.09 48.5763 184.193 48.5935L186.851 49.0388C187.811 49.2001 188.615 49.6707 188.877 50.4902C189.138 51.3091 188.755 52.16 188.065 52.8517L188.064 52.8524L185.999 54.9344C185.917 55.0169 185.826 55.1723 185.768 55.3749C185.711 55.576 185.706 55.7592 185.732 55.8776L185.732 55.8793L186.323 58.4548C186.568 59.5268 186.487 60.5898 185.731 61.1455C184.972 61.7031 183.936 61.4559 182.994 60.895L180.502 59.4078C180.397 59.3453 180.218 59.2947 180.001 59.2947C179.786 59.2947 179.602 59.3446 179.491 59.4095L179.489 59.4104L177.002 60.8947C176.062 61.4575 175.026 61.7003 174.268 61.1422C173.512 60.5863 173.427 59.5254 173.673 58.4543L174.263 55.8793L174.264 55.8776C174.29 55.7592 174.284 55.576 174.227 55.3749C174.17 55.1723 174.078 55.0169 173.996 54.9344L171.93 52.8509C171.244 52.1592 170.863 51.309 171.122 50.4914C171.381 49.6714 172.185 49.2002 173.145 49.0387L175.801 48.5938L175.802 48.5937C175.899 48.5768 176.052 48.5125 176.21 48.3942C176.369 48.2758 176.475 48.1465 176.519 48.0546L176.522 48.05L177.988 45.0928L177.989 45.0916C178.432 44.2012 179.123 43.542 179.997 43.542Z" fill="url(#paint3_linear_2016_757)"/>
<path d="M203.997 43.542C204.871 43.542 205.56 44.2024 206 45.0936L207.468 48.0546C207.512 48.1463 207.618 48.2753 207.777 48.3934C207.935 48.5113 208.09 48.5763 208.193 48.5935L210.851 49.0388C211.811 49.2001 212.615 49.6707 212.877 50.4902C213.138 51.3091 212.755 52.16 212.065 52.8517L212.064 52.8524L209.999 54.9344C209.917 55.0169 209.826 55.1723 209.768 55.3749C209.711 55.576 209.706 55.7592 209.732 55.8776L209.732 55.8793L210.323 58.4548C210.568 59.5268 210.487 60.5898 209.731 61.1455C208.972 61.7031 207.936 61.4559 206.994 60.895L204.502 59.4078C204.397 59.3453 204.218 59.2947 204.001 59.2947C203.786 59.2947 203.602 59.3446 203.491 59.4095L203.489 59.4104L201.002 60.8947C200.062 61.4575 199.026 61.7003 198.268 61.1422C197.512 60.5863 197.427 59.5254 197.673 58.4543L198.263 55.8793L198.264 55.8776C198.29 55.7592 198.284 55.576 198.227 55.3749C198.17 55.1723 198.078 55.0169 197.996 54.9344L195.93 52.8509C195.244 52.1592 194.863 51.309 195.122 50.4914C195.381 49.6714 196.185 49.2002 197.145 49.0387L199.801 48.5938L199.802 48.5937C199.899 48.5768 200.052 48.5125 200.21 48.3942C200.369 48.2758 200.475 48.1465 200.519 48.0546L200.522 48.05L201.988 45.0928L201.989 45.0916C202.432 44.2012 203.123 43.542 203.997 43.542Z" fill="url(#paint4_linear_2016_757)"/>
<path d="M100.696 94.1992C98.1398 94.1992 96.4714 92.8047 96.3054 90.854L96.2971 90.7461H98.0817L98.09 90.8374C98.2063 91.8999 99.2106 92.647 100.696 92.647C102.157 92.647 103.145 91.8335 103.145 90.6714V90.6548C103.145 89.3018 102.166 88.5464 100.564 88.5464H99.111V87.1021H100.514C101.883 87.1021 102.813 86.2969 102.813 85.1846V85.168C102.813 84.0142 102.033 83.3418 100.68 83.3418C99.3518 83.3418 98.4221 84.0391 98.3059 85.1514L98.2976 85.2261H96.5544L96.5627 85.1431C96.7453 83.1426 98.3391 81.8228 100.68 81.8228C103.062 81.8228 104.623 83.0845 104.623 84.9272V84.9438C104.623 86.4297 103.56 87.4258 102.099 87.7329V87.7744C103.859 87.9321 105.038 88.9946 105.038 90.6714V90.688C105.038 92.7383 103.237 94.1992 100.696 94.1992ZM111.223 94.1992C108.775 94.1992 106.517 92.4976 106.517 88.1895V88.1729C106.517 84.1802 108.302 81.8228 111.298 81.8228C113.431 81.8228 115.034 83.043 115.415 84.8276L115.44 84.9272H113.573L113.548 84.8442C113.207 83.9478 112.427 83.3833 111.282 83.3833C109.223 83.3833 108.385 85.3672 108.31 87.7412C108.302 87.8491 108.302 87.957 108.302 88.0649H108.343C108.816 86.9858 110.028 86.1392 111.655 86.1392C113.946 86.1392 115.598 87.8076 115.598 90.0737V90.0903C115.598 92.481 113.747 94.1992 111.223 94.1992ZM108.667 90.0986C108.667 91.5181 109.779 92.6387 111.199 92.6387C112.618 92.6387 113.747 91.5347 113.747 90.1401V90.1235C113.747 88.6792 112.684 87.6499 111.223 87.6499C109.771 87.6499 108.667 88.6709 108.667 90.0903V90.0986ZM118.264 94.1245C117.65 94.1245 117.168 93.6431 117.168 93.0371C117.168 92.4229 117.65 91.9497 118.264 91.9497C118.87 91.9497 119.352 92.4229 119.352 93.0371C119.352 93.6431 118.87 94.1245 118.264 94.1245ZM125.454 81.8228C127.903 81.8228 130.161 83.5244 130.161 87.8325V87.8491C130.161 91.8418 128.376 94.1992 125.38 94.1992C123.246 94.1992 121.644 92.979 121.262 91.1943L121.237 91.0947H123.097L123.13 91.1777C123.47 92.0742 124.251 92.6387 125.396 92.6387C127.455 92.6387 128.293 90.6548 128.368 88.2808C128.376 88.1729 128.376 88.0649 128.376 87.957H128.335C127.861 89.0361 126.65 89.8828 125.023 89.8828C122.732 89.8828 121.071 88.2144 121.071 85.9482V85.9316C121.071 83.541 122.923 81.8228 125.454 81.8228ZM125.446 88.3721C126.907 88.3721 128.011 87.3511 128.011 85.9316V85.9233C128.011 84.5039 126.899 83.3833 125.471 83.3833C124.06 83.3833 122.923 84.4873 122.923 85.8818V85.8984C122.923 87.3428 123.993 88.3721 125.446 88.3721ZM131.922 94V82.022H133.782V87.7578H133.831L138.662 82.022H140.87L136.33 87.3179L141.261 94H138.961L135.002 88.5879L133.782 89.999V94H131.922ZM145.771 94V82.022H150.42C152.868 82.022 154.412 83.4414 154.412 85.6909V85.7075C154.412 87.3345 153.524 88.6294 152.088 89.1191L154.769 94H152.628L150.187 89.4014H147.63V94H145.771ZM147.63 87.874H150.237C151.673 87.874 152.495 87.0854 152.495 85.7241V85.7075C152.495 84.3794 151.615 83.5825 150.187 83.5825H147.63V87.874ZM158.29 94.1577C156.547 94.1577 155.377 93.0869 155.377 91.5181V91.5015C155.377 89.9824 156.555 89.0527 158.622 88.9282L160.996 88.7871V88.1313C160.996 87.1685 160.374 86.5874 159.261 86.5874C158.224 86.5874 157.585 87.0771 157.435 87.7744L157.419 87.8491H155.725L155.734 87.7578C155.858 86.2554 157.161 85.1016 159.311 85.1016C161.445 85.1016 162.798 86.2305 162.798 87.9819V94H160.996V92.6221H160.963C160.457 93.5601 159.444 94.1577 158.29 94.1577ZM157.186 91.4766C157.186 92.2402 157.817 92.7217 158.78 92.7217C160.042 92.7217 160.996 91.8667 160.996 90.7295V90.0488L158.863 90.1816C157.784 90.248 157.186 90.7212 157.186 91.46V91.4766ZM167.531 94.1743C165.804 94.1743 164.974 93.4438 164.974 91.7007V86.6953H163.721V85.2676H164.974V82.9932H166.808V85.2676H168.444V86.6953H166.808V91.5928C166.808 92.481 167.207 92.7466 167.962 92.7466C168.153 92.7466 168.311 92.73 168.444 92.7134V94.0996C168.236 94.1328 167.896 94.1743 167.531 94.1743ZM170.828 83.9229C170.247 83.9229 169.782 83.458 169.782 82.8936C169.782 82.3208 170.247 81.856 170.828 81.856C171.417 81.856 171.874 82.3208 171.874 82.8936C171.874 83.458 171.417 83.9229 170.828 83.9229ZM169.931 94V85.2676H171.724V94H169.931ZM173.502 94V85.2676H175.295V86.5874H175.337C175.793 85.6992 176.69 85.1016 178.009 85.1016C179.927 85.1016 181.031 86.3384 181.031 88.3472V94H179.23V88.6875C179.23 87.376 178.615 86.6372 177.37 86.6372C176.109 86.6372 175.295 87.5503 175.295 88.9116V94H173.502ZM186.519 97.0796C184.278 97.0796 182.859 96.042 182.593 94.7056L182.585 94.6309H184.361L184.394 94.6973C184.635 95.2534 185.39 95.6353 186.511 95.6353C187.939 95.6353 188.727 94.8716 188.727 93.6514V92.4561H188.686C188.188 93.4023 187.192 94.0083 185.938 94.0083C183.747 94.0083 182.303 92.29 182.303 89.5674V89.5591C182.303 86.8198 183.763 85.1016 185.98 85.1016C187.208 85.1016 188.171 85.7656 188.686 86.7534H188.727V85.2676H190.529V93.7593C190.529 95.7515 188.985 97.0796 186.519 97.0796ZM186.445 92.5474C187.814 92.5474 188.727 91.3936 188.727 89.5923V89.584C188.727 87.791 187.806 86.6372 186.445 86.6372C185.025 86.6372 184.137 87.7827 184.137 89.584V89.5923C184.137 91.4185 185.025 92.5474 186.445 92.5474Z" fill="#2E2E2E" fill-opacity="0.7"/>
<defs>
<linearGradient id="paint0_linear_2016_757" x1="108" y1="43.542" x2="108" y2="61.4598" gradientUnits="userSpaceOnUse">
<stop stop-color="#FFC227"/>
<stop offset="1" stop-color="#FF9900"/>
</linearGradient>
<linearGradient id="paint1_linear_2016_757" x1="132" y1="43.542" x2="132" y2="61.4598" gradientUnits="userSpaceOnUse">
<stop stop-color="#FFC227"/>
<stop offset="1" stop-color="#FF9900"/>
</linearGradient>
<linearGradient id="paint2_linear_2016_757" x1="156" y1="43.542" x2="156" y2="61.4598" gradientUnits="userSpaceOnUse">
<stop stop-color="#FFC227"/>
<stop offset="1" stop-color="#FF9900"/>
</linearGradient>
<linearGradient id="paint3_linear_2016_757" x1="180" y1="43.542" x2="180" y2="61.4598" gradientUnits="userSpaceOnUse">
<stop stop-color="#FFC227"/>
<stop offset="1" stop-color="#FF9900"/>
</linearGradient>
<linearGradient id="paint4_linear_2016_757" x1="204" y1="43.542" x2="204" y2="61.4598" gradientUnits="userSpaceOnUse">
<stop stop-color="#FFC227"/>
<stop offset="1" stop-color="#FF9900"/>
</linearGradient>
</defs>
</svg>
